<svg clip-rule="evenodd" fill-rule="evenodd" height="28mm" image-rendering="optimizeQuality" shape-rendering="geometricPrecision" text-rendering="geometricPrecision" viewBox="0 0 10000 2800" width="100mm" xmlns="http://www.w3.org/2000/svg"><g fill="#3b3b3d" fill-rule="nonzero"><path d="m3570 1756h-120v-90h-2c-51 71-123 107-215 107-79 0-140-18-184-52-47-37-71-92-71-165 0-79 38-138 112-179 59-33 130-49 211-49 57 0 103 1 136 3 0-63-13-108-37-136-27-30-72-45-135-45-78 0-145 23-201 70l-7-108c73-44 149-66 229-66 97 0 168 24 213 73 44 46 66 118 66 214v287c0 64 1 109 5 136zm-133-269v-61c-9 0-23-1-41-2s-32-1-40-1c-161 0-242 44-242 133 0 35 15 62 43 84 25 19 54 29 87 29 61 0 109-17 143-52 33-33 50-76 50-130z"/><path d="m4403 1397c0 105-24 191-70 259-54 78-130 117-228 117-108 0-185-38-231-112h-3v381h-128v-979h123v97h2c50-76 129-114 236-114 96 0 171 35 225 106 49 64 74 146 74 245zm-136 10c0-71-14-130-43-176-34-54-83-81-147-81-66 0-117 27-155 81-34 49-51 109-51 180 0 66 16 124 49 172 37 58 89 86 155 86 63 0 112-30 148-90 29-50 44-107 44-172z"/><path d="m5196 1397c0 105-24 191-70 259-54 78-130 117-228 117-108 0-185-38-231-112h-3v381h-128v-979h123v97h2c50-76 129-114 236-114 96 0 171 35 225 106 49 64 74 146 74 245zm-136 10c0-71-15-130-43-176-34-54-83-81-147-81-66 0-117 27-155 81-34 49-51 109-51 180 0 66 16 124 49 172 37 58 89 86 155 86 63 0 112-30 148-90 29-50 44-107 44-172z"/><path d="m5703 1556c0 70-25 124-74 163-45 36-101 54-168 54-80 0-143-13-190-39l6-114c51 33 104 49 160 49 34 0 63-7 87-22 29-17 43-43 43-78 0-33-26-64-78-93-48-26-96-52-145-78-52-37-77-83-77-139 0-69 23-122 70-160 44-35 102-53 174-53 45 0 98 9 159 27l-10 112c-14-9-36-17-67-25-29-7-52-10-68-10-35 0-63 6-85 20-25 15-37 37-37 64 0 38 26 70 78 97 48 25 96 50 145 74 51 37 77 88 77 151z"/><path d="m6405 1438h-495c0 67 23 122 70 167 43 43 96 64 159 64 38 0 80-8 126-25 40-14 69-29 87-44v128c-83 30-156 45-219 45-119 0-209-35-271-104-58-65-88-155-88-272 0-103 30-188 90-253s138-98 236-98c204 0 305 131 305 392zm-136-95c0-55-15-101-45-137-32-38-74-56-127-56-58 0-103 20-137 62-27 35-44 78-50 131z"/><path d="m7533 1756h-127v-414c0-128-42-192-124-192-61 0-108 26-141 79-27 47-41 106-41 178v349h-128v-414c0-128-42-192-124-192-61 0-107 26-140 79-28 47-42 106-42 178v349h-128v-693h120v100h2c48-78 122-117 221-117 96 0 162 45 197 135 22-45 55-80 101-105 38-20 76-30 113-30 161 0 241 89 241 265z"/><path d="m8370 1397c0 105-23 191-70 259-54 78-129 117-227 117-108 0-187-39-237-114h-3v97h-122v-1020h128v422h2c46-75 123-112 231-112 95 0 170 35 225 106 49 64 73 146 73 245zm-136 10c0-71-14-130-43-176-34-54-82-81-147-81s-117 27-154 81c-34 49-51 109-51 180 0 66 16 124 48 172 38 58 90 86 156 86 63 0 112-30 148-90 29-50 43-107 43-172z"/><path d="m8648 1756h-128v-1020h128z"/><path d="m9429 1438h-495c0 67 23 122 69 167 43 43 96 64 159 64 38 0 80-8 126-25 40-14 69-29 88-44v128c-84 30-157 45-219 45-120 0-210-35-272-104-58-65-87-155-87-272 0-103 29-188 89-253s139-98 236-98c204 0 306 131 306 392zm-136-95c0-55-15-101-46-137-32-38-74-56-127-56-58 0-103 20-137 62-27 35-44 78-49 131z"/><path d="m9950 1170c-20-8-44-12-71-12-57 0-103 25-137 76-35 51-52 120-52 207v315h-128v-693h120v107h3c17-37 42-66 76-89 33-23 68-35 105-35 24 0 52 3 84 10z"/></g><path d="m597 1768 636 367 637-367-273-158-364 210-363-210zm1273-736-637-367z" fill="#0090c1" fill-opacity=".501961"/><path d="m1233 1296-90 52v104l90 52 90-52v-104z" fill="none"/><path d="m1233 34-1183 683v1366l273-158v-1050l910-526 910 526v1050l273 158v-1366z" fill="#0090c1"/><path d="m50 2083 1183 683 1183-683-273-158-910 526-910-526z" fill="#0090c1" fill-opacity=".501961"/><path d="m1870 1032v736l-273-158v-420l-364-210-363 210v420l-273 158v-736l636-367z" fill="#0090c1"/><path d="m1233 1296-90 52v104l90 52 90-52v-104z" fill="#0090c1"/></svg>