<?xml version="1.0" encoding="UTF-8" standalone="no"?>
<!-- Created with Inkscape (http://www.inkscape.org/) -->

<svg
   xmlns:dc="http://purl.org/dc/elements/1.1/"
   xmlns:cc="http://creativecommons.org/ns#"
   xmlns:rdf="http://www.w3.org/1999/02/22-rdf-syntax-ns#"
   xmlns:svg="http://www.w3.org/2000/svg"
   xmlns="http://www.w3.org/2000/svg"
   xmlns:sodipodi="http://sodipodi.sourceforge.net/DTD/sodipodi-0.dtd"
   xmlns:inkscape="http://www.inkscape.org/namespaces/inkscape"
   id="svg2"
   version="1.1"
   inkscape:version="0.91 r13725"
   xml:space="preserve"
   width="360"
   height="74.296432"
   viewBox="0 0 360.00001 74.296431"
   sodipodi:docname="logo.svg"><metadata
     id="metadata8"><rdf:RDF><cc:Work
         rdf:about=""><dc:format>image/svg+xml</dc:format><dc:type
           rdf:resource="http://purl.org/dc/dcmitype/StillImage" /><dc:title></dc:title></cc:Work></rdf:RDF></metadata><defs
     id="defs6"><clipPath
       clipPathUnits="userSpaceOnUse"
       id="clipPath16"><path
         d="m 0,253.585 893,0 L 893,0 0,0 0,253.585 Z"
         id="path18"
         inkscape:connector-curvature="0" /></clipPath><clipPath
       clipPathUnits="userSpaceOnUse"
       id="clipPath76"><path
         d="m 0,253.585 893,0 L 893,0 0,0 0,253.585 Z"
         id="path78"
         inkscape:connector-curvature="0" /></clipPath></defs><sodipodi:namedview
     pagecolor="#ffffff"
     bordercolor="#666666"
     borderopacity="1"
     objecttolerance="10"
     gridtolerance="10"
     guidetolerance="10"
     inkscape:pageopacity="0"
     inkscape:pageshadow="2"
     inkscape:window-width="1920"
     inkscape:window-height="1017"
     id="namedview4"
     showgrid="false"
     fit-margin-top="0"
     fit-margin-left="0"
     fit-margin-right="0"
     fit-margin-bottom="0"
     inkscape:zoom="3.5474114"
     inkscape:cx="184.30258"
     inkscape:cy="81.662998"
     inkscape:window-x="-8"
     inkscape:window-y="-8"
     inkscape:window-maximized="1"
     inkscape:current-layer="g10" /><g
     id="g10"
     inkscape:groupmode="layer"
     inkscape:label="Annoto_logo03"
     transform="matrix(1.25,0,0,-1.25,-13.232875,164.91593)"><g
       id="g4230"><g
         transform="matrix(0.3282199,0,0,0.3282199,7.1116656,48.701101)"
         id="g12"><g
           clip-path="url(#clipPath16)"
           id="g14"><g
             transform="translate(73.478,164.6685)"
             id="g20"><path
               inkscape:connector-curvature="0"
               id="path22"
               style="fill:#e95552;fill-opacity:1;fill-rule:nonzero;stroke:none"
               d="m 0,0 c 1.815,4.149 3.61,8.222 5.424,12.194 1.805,3.974 3.572,7.997 5.295,12.067 1.711,4.066 3.562,8.262 5.559,12.608 l 21.683,-50.156 31.503,0 -39.642,93.254 c -1.09,2.354 -2.844,4.423 -5.28,6.237 -2.441,1.807 -5.208,2.713 -8.264,2.713 -6.152,0 -10.679,-2.979 -13.564,-8.95 l -39.634,-93.254 31.228,0 C -3.707,-8.59 -1.803,-4.157 0,0" /></g><g
             transform="translate(155.8477,121.0122)"
             id="g24"><path
               inkscape:connector-curvature="0"
               id="path26"
               style="fill:#e95552;fill-opacity:1;fill-rule:nonzero;stroke:none"
               d="m 0,0 -31.439,0 16.575,-39.575 c 2.349,-5.957 6.87,-8.941 13.554,-8.941 4.519,0 8.093,1.576 10.72,4.738 2.613,3.164 3.917,6.459 3.917,9.894 0,1.625 -0.44,3.526 -1.349,5.697 L 0,0 Z" /></g><g
             transform="translate(11.6753,92.8257)"
             id="g28"><path
               inkscape:connector-curvature="0"
               id="path30"
               style="fill:#e95552;fill-opacity:1;fill-rule:nonzero;stroke:none"
               d="m 0,0 c -0.365,-0.729 -0.641,-1.625 -0.822,-2.713 -0.172,-1.093 -0.267,-2.083 -0.267,-2.985 0,-3.434 1.31,-6.729 3.933,-9.893 2.621,-3.162 6.195,-4.739 10.702,-4.739 2.894,0 5.522,0.728 7.87,2.159 2.349,1.452 4.241,3.708 5.696,6.783 2.712,6.685 5.461,13.373 8.27,20.062 2.713,6.504 5.482,13.007 8.29,19.513 l -31.694,0 L 0,0 Z" /></g><g
             transform="translate(194.1748,158.9731)"
             id="g32"><path
               inkscape:connector-curvature="0"
               id="path34"
               style="fill:#e95552;fill-opacity:1;fill-rule:nonzero;stroke:none"
               d="m 0,0 c 0,6.867 1.319,13.326 3.934,19.381 2.619,6.055 6.227,11.388 10.856,15.991 4.601,4.614 9.968,8.235 16.124,10.851 6.138,2.62 12.642,3.936 19.512,3.936 7.05,0 13.606,-1.316 19.659,-3.936 C 76.14,43.607 81.471,39.986 86.084,35.372 90.689,30.769 94.3,25.436 96.918,19.381 99.539,13.326 100.853,6.867 100.853,0 l 0,-71.845 c 0,-4.163 -1.396,-7.638 -4.208,-10.436 -2.795,-2.802 -6.271,-4.196 -10.427,-4.196 -3.804,0 -7.146,1.394 -10.027,4.196 -2.898,2.798 -4.339,6.273 -4.339,10.436 l 0,71.845 c 0,5.779 -2.084,10.707 -6.251,14.778 -4.141,4.066 -9.209,6.091 -15.175,6.091 -2.884,0 -5.645,-0.533 -8.264,-1.621 -2.616,-1.09 -4.887,-2.578 -6.781,-4.47 -1.892,-1.9 -3.428,-4.12 -4.603,-6.649 C 29.603,5.598 29.012,2.893 29.012,0 l 0,-7.591 L 0,-7.591 0,0 Z" /></g><g
             transform="translate(223.187,87.1279)"
             id="g36"><path
               inkscape:connector-curvature="0"
               id="path38"
               style="fill:#e95552;fill-opacity:1;fill-rule:nonzero;stroke:none"
               d="m 0,0 c 0,-4.163 -1.396,-7.638 -4.205,-10.436 -2.8,-2.801 -6.18,-4.196 -10.165,-4.196 -3.974,0 -7.403,1.395 -10.306,4.196 -2.884,2.798 -4.336,6.273 -4.336,10.436 l 0,33.884 L 0,33.884 0,0 Z" /></g><g
             transform="translate(420.8774,87.1279)"
             id="g40"><path
               inkscape:connector-curvature="0"
               id="path42"
               style="fill:#e95552;fill-opacity:1;fill-rule:nonzero;stroke:none"
               d="m 0,0 c 0,-4.163 -1.396,-7.638 -4.203,-10.436 -2.812,-2.801 -6.285,-4.196 -10.43,-4.196 -3.801,0 -7.148,1.395 -10.033,4.196 -2.901,2.798 -4.344,6.273 -4.344,10.436 l 0,33.884 29.01,0 L 0,0 Z" /></g><g
             transform="translate(334.7998,194.3452)"
             id="g44"><path
               inkscape:connector-curvature="0"
               id="path46"
               style="fill:#e95552;fill-opacity:1;fill-rule:nonzero;stroke:none"
               d="m 0,0 c 4.617,4.614 9.986,8.235 16.134,10.851 6.147,2.62 12.649,3.936 19.517,3.936 7.042,0 13.6,-1.316 19.647,-3.936 C 61.366,8.235 66.688,4.614 71.299,0 c 4.617,-4.603 8.227,-9.936 10.842,-15.991 2.627,-6.055 3.937,-12.514 3.937,-19.381 l 0,-7.591 -29.011,0 0,7.591 c 0,5.779 -2.074,10.706 -6.238,14.778 -4.141,4.066 -9.207,6.091 -15.178,6.091 -2.895,0 -5.643,-0.533 -8.263,-1.621 -2.617,-1.09 -4.89,-2.578 -6.782,-4.47 -1.893,-1.9 -3.436,-4.12 -4.606,-6.649 -1.184,-2.531 -1.765,-5.236 -1.765,-8.129 l 0,-71.845 c 0,-4.163 -1.405,-7.638 -4.204,-10.436 -2.797,-2.802 -6.189,-4.196 -10.169,-4.196 -3.975,0 -7.406,1.394 -10.302,4.196 -2.882,2.798 -4.332,6.273 -4.332,10.436 l 0,71.845 c 0,6.867 1.317,13.326 3.933,19.381 C -8.219,-9.936 -4.61,-4.603 0,0" /></g><g
             transform="translate(531.9551,194.3452)"
             id="g48"><path
               inkscape:connector-curvature="0"
               id="path50"
               style="fill:#e95552;fill-opacity:1;fill-rule:nonzero;stroke:none"
               d="m 0,0 c -4.612,4.614 -9.991,8.235 -16.133,10.851 -6.153,2.62 -12.649,3.936 -19.523,3.936 -7.041,0 -13.599,-1.316 -19.652,-3.936 C -61.361,8.235 -66.694,4.614 -71.306,0 c -4.602,-4.603 -8.226,-9.936 -10.846,-15.991 -2.615,-6.055 -3.926,-12.514 -3.926,-19.381 l 0,-7.591 29.28,0 0,7.591 c 0,5.779 2.034,10.706 6.104,14.778 4.058,4.066 9.074,6.091 15.038,6.091 2.895,0 5.651,-0.533 8.271,-1.621 2.617,-1.09 4.88,-2.578 6.782,-4.47 1.892,-1.9 3.429,-4.12 4.603,-6.649 1.172,-2.531 1.759,-5.236 1.759,-8.129 l 0,-36.329 c 0,-5.789 -2.025,-10.709 -6.097,-14.774 -4.068,-4.063 -9.168,-6.104 -15.318,-6.104 -5.78,0 -10.755,2.041 -14.903,6.104 -3.763,3.675 -5.811,8.059 -6.172,13.142 l -29.304,0 c 0.191,-6.259 1.478,-12.18 3.883,-17.758 2.62,-6.055 6.244,-11.384 10.846,-15.989 4.612,-4.602 9.988,-8.224 16.131,-10.843 6.144,-2.625 12.658,-3.926 19.519,-3.926 7.047,0 13.599,1.301 19.656,3.926 6.058,2.619 11.388,6.241 16,10.843 4.614,4.605 8.224,9.934 10.842,15.989 2.616,6.059 3.936,12.514 3.936,19.39 l 0,36.329 c 0,6.867 -1.32,13.326 -3.936,19.381 C 8.224,-9.936 4.614,-4.603 0,0" /></g><g
             transform="translate(600.7329,179.0337)"
             id="g52"><path
               inkscape:connector-curvature="0"
               id="path54"
               style="fill:#e95552;fill-opacity:1;fill-rule:nonzero;stroke:none"
               d="m 0,0 43.651,0 c 4.146,0 7.625,1.439 10.433,4.334 2.798,2.893 4.204,6.242 4.204,10.032 0,4.156 -1.406,7.633 -4.204,10.442 -2.808,2.797 -6.287,4.201 -10.433,4.201 L 0,29.009 0,55.848 c 0,4.148 -1.452,7.625 -4.336,10.433 -2.896,2.809 -6.324,4.203 -10.298,4.203 -3.981,0 -7.372,-1.394 -10.176,-4.203 C -27.603,63.473 -29,59.996 -29,55.848 l 0,-83.5 29,0 L 0,0 Z" /></g><g
             transform="translate(655.231,123.7368)"
             id="g56"><path
               inkscape:connector-curvature="0"
               id="path58"
               style="fill:#e95552;fill-opacity:1;fill-rule:nonzero;stroke:none"
               d="m 0,0 c -3.089,0 -5.787,-0.862 -8.142,-2.58 -2.349,-1.721 -4.057,-3.839 -5.143,-6.37 -1.816,-4.156 -4.522,-7.365 -8.143,-9.621 -3.611,-2.271 -7.488,-3.399 -11.655,-3.399 -2.882,0 -5.642,0.542 -8.269,1.632 -2.62,1.079 -4.873,2.566 -6.774,4.472 -1.898,1.9 -3.43,4.114 -4.614,6.636 -0.948,2.045 -1.492,4.226 -1.671,6.505 l -29.049,0 c 0.193,-6.258 1.47,-12.18 3.888,-17.757 2.62,-6.056 6.237,-11.384 10.842,-15.989 4.602,-4.603 9.982,-8.224 16.132,-10.844 6.144,-2.624 12.645,-3.926 19.515,-3.926 0.182,0 1.987,0.089 5.426,0.267 3.428,0.182 7.587,1.225 12.465,3.117 4.885,1.901 9.943,4.967 15.192,9.216 5.242,4.253 9.653,10.44 13.286,18.569 0.897,2.167 1.355,3.974 1.355,5.426 0,3.973 -1.415,7.405 -4.212,10.298 C 7.631,-1.452 4.156,0 0,0" /></g><g
             transform="translate(760.6055,107.8706)"
             id="g60"><path
               inkscape:connector-curvature="0"
               id="path62"
               style="fill:#e95552;fill-opacity:1;fill-rule:nonzero;stroke:none"
               d="m 0,0 c -4.065,-4.063 -9.165,-6.104 -15.319,-6.104 -5.78,0 -10.758,2.041 -14.901,6.104 -3.766,3.674 -5.806,8.059 -6.173,13.142 l -0.075,0 -29.228,0 c 0.188,-6.259 1.478,-12.181 3.887,-17.758 2.614,-6.055 6.235,-11.384 10.842,-15.989 4.612,-4.603 9.991,-8.224 16.133,-10.844 6.144,-2.624 12.654,-3.926 19.515,-3.926 7.051,0 13.604,1.302 19.659,3.926 6.056,2.62 11.385,6.241 15.99,10.844 4.625,4.605 8.234,9.934 10.854,15.989 2.408,5.577 3.695,11.492 3.892,17.758 l -29.049,0 C 5.678,8.059 3.68,3.674 0,0" /></g><g
             transform="translate(730.2476,173.7515)"
             id="g64"><path
               inkscape:connector-curvature="0"
               id="path66"
               style="fill:#e95552;fill-opacity:1;fill-rule:nonzero;stroke:none"
               d="m 0,0 c 4.066,4.065 9.075,6.09 15.039,6.09 2.893,0 5.657,-0.532 8.273,-1.62 2.617,-1.09 4.881,-2.578 6.78,-4.47 1.891,-1.9 3.428,-4.121 4.606,-6.649 1.174,-2.532 1.758,-5.236 1.758,-8.129 l 0,-7.592 29.017,0 0,7.592 c 0,6.867 -1.316,13.326 -3.931,19.381 -2.62,6.055 -6.229,11.388 -10.854,15.991 -4.605,4.614 -9.984,8.235 -16.127,10.85 -6.15,2.62 -12.647,3.937 -19.522,3.937 -7.048,0 -13.602,-1.317 -19.646,-3.937 -6.071,-2.615 -11.39,-6.236 -16.002,-10.85 -4.607,-4.603 -8.228,-9.936 -10.842,-15.991 -2.629,-6.055 -3.925,-12.514 -3.925,-19.381 l 0,-7.592 29.266,0 0,7.592 C -6.11,-8.999 -4.065,-4.072 0,0" /></g></g></g><g
         transform="matrix(0.3282199,0,0,0.3282199,7.1116656,48.701101)"
         id="g72"><g
           clip-path="url(#clipPath76)"
           id="g74"><g
             transform="translate(854.3848,174.4756)"
             id="g80"><path
               inkscape:connector-curvature="0"
               id="path82"
               style="fill:#e95552;fill-opacity:1;fill-rule:nonzero;stroke:none"
               d="m 0,0 c -18.591,0 -33.664,-15.063 -33.664,-33.66 0,-18.587 15.073,-33.662 33.664,-33.662 18.593,0 33.662,15.075 33.662,33.662 C 33.662,-15.063 18.593,0 0,0" /></g><g
             transform="translate(870.333,136.5566)"
             id="g84"><path
               inkscape:connector-curvature="0"
               id="path86"
               style="fill:#ffffff;fill-opacity:1;fill-rule:nonzero;stroke:none"
               d="M 0,0 -7.104,4.259 0,8.518 c 2.154,1.292 2.852,4.085 1.563,6.238 -1.292,2.152 -4.085,2.851 -6.239,1.563 l -6.727,-4.032 0,7.838 c 0,2.512 -2.035,4.548 -4.547,4.548 -2.51,0 -4.548,-2.036 -4.548,-4.548 l 0,-7.838 -6.723,4.032 c -2.158,1.288 -4.951,0.589 -6.239,-1.563 -1.292,-2.153 -0.591,-4.946 1.564,-6.238 l 7.1,-4.259 -7.1,-4.259 c -2.155,-1.292 -2.856,-4.085 -1.564,-6.239 0.853,-1.421 2.357,-2.209 3.902,-2.209 0.796,0 1.605,0.209 2.337,0.646 l 6.723,4.032 0,-7.84 c 0,-2.511 2.038,-4.547 4.548,-4.547 2.512,0 4.547,2.036 4.547,4.547 l 0,7.84 6.727,-4.032 c 0.734,-0.437 1.536,-0.646 2.331,-0.646 1.546,0 3.056,0.788 3.908,2.209 C 2.852,-4.085 2.154,-1.292 0,0" /></g></g></g><path
         inkscape:connector-curvature="0"
         id="path4169"
         d="m 194.85367,112.90857 c 0.0828,14.16731 0.0984,14.50475 0.70408,15.32194 2.15431,2.90635 5.78417,2.90659 7.93961,5.2e-4 0.56421,-0.7607 0.6281,-1.30784 0.71737,-6.14357 l 0.098,-5.30851 7.89605,-10e-4 c 7.35678,-0.001 7.96197,-0.0413 8.86102,-0.58945 2.93407,-1.78892 2.80727,-6.25597 -0.22596,-7.96075 -1.05724,-0.59421 -1.52083,-0.62707 -8.84738,-0.62707 l -7.73169,0 0,-4.58918 0,-4.589174 -4.7479,0 -4.74791,0 0.0847,14.486344 z"
         style="opacity:1;fill:#e95552;fill-opacity:1;fill-rule:nonzero;stroke:#000000;stroke-width:0;stroke-miterlimit:0;stroke-dasharray:none;stroke-opacity:0" /><path
         inkscape:connector-curvature="0"
         id="path4171"
         d="m 207.41649,73.116493 c -6.43865,1.618413 -11.41244,7.080934 -12.28997,13.497581 l -0.23818,1.741564 4.62681,0 4.62681,0 0.33983,-1.270608 c 0.44355,-1.658374 2.39281,-3.854052 3.98825,-4.492419 3.20104,-1.280801 6.94549,-0.142469 8.73087,2.654228 1.58989,2.49048 2.45739,3.380378 3.641,3.734998 1.46789,0.439788 3.01535,0.133554 4.15011,-0.821285 2.04542,-1.721109 2.29352,-3.745268 0.81229,-6.62723 -1.80907,-3.519815 -5.39888,-6.627469 -9.28518,-8.038069 -2.24468,-0.814741 -6.64047,-0.997652 -9.10264,-0.37876 z"
         style="opacity:1;fill:#e95552;fill-opacity:1;fill-rule:nonzero;stroke:#000000;stroke-width:0;stroke-miterlimit:0;stroke-dasharray:none;stroke-opacity:0" /><path
         inkscape:connector-curvature="0"
         id="path4173"
         d="m 235.35276,100.72863 c 0,6.86441 4.39856,13.17056 10.81836,15.5101 2.65545,0.96772 7.44664,1.10315 10.11744,0.28599 5.77853,-1.768 10.277,-6.59814 11.48243,-12.32901 0.23976,-1.13989 0.43825,-2.90525 0.44108,-3.92301 l 0.005,-1.850474 -4.73721,0 -4.73722,0 -0.003,2.146554 c -0.002,1.84218 -0.12915,2.3669 -0.894,3.70057 -2.86628,4.99792 -10.38565,4.62047 -12.57953,-0.63146 -0.2642,-0.63247 -0.55706,-2.06475 -0.6508,-3.18281 l -0.17043,-2.032854 -4.54623,0 -4.54624,0 0,2.306404 z"
         style="opacity:1;fill:#e95552;fill-opacity:1;fill-rule:nonzero;stroke:#000000;stroke-width:0;stroke-miterlimit:0;stroke-dasharray:none;stroke-opacity:0" /><path
         inkscape:connector-curvature="0"
         id="path4175"
         d="m 247.86853,73.089027 c -2.8176,0.68274 -5.40693,2.186034 -7.63951,4.435291 -2.3469,2.364423 -3.75767,4.790632 -4.42037,7.60204 -0.82363,3.494161 -1.1717,3.22928 4.24349,3.22928 l 4.69937,0 0.17843,-1.115848 c 0.25113,-1.570462 1.68024,-3.369666 3.43522,-4.324849 3.98935,-2.171274 9.61472,0.196533 10.27486,4.324849 l 0.17843,1.115848 4.70288,0 4.70288,0 -0.1811,-1.258322 c -0.55092,-3.827973 -2.1197,-6.962124 -4.85617,-9.701744 -2.12879,-2.131242 -5.22345,-3.850169 -7.93764,-4.408955 -2.03474,-0.418903 -5.4234,-0.371886 -7.38077,0.10241 z"
         style="opacity:1;fill:#e95552;fill-opacity:1;fill-rule:nonzero;stroke:#000000;stroke-width:0;stroke-miterlimit:0;stroke-dasharray:none;stroke-opacity:0" /><path
         inkscape:connector-curvature="0"
         id="path4177"
         d="m 284.80465,84.372146 c -2.23609,0.624324 -3.84519,1.630465 -5.4344,3.398055 -1.81408,2.01771 -2.64695,4.251414 -2.64695,7.099113 0,11.539846 15.48518,15.135706 20.58341,4.779735 0.88133,-1.790279 0.96223,-2.191498 0.96223,-4.773509 0,-2.515436 -0.0931,-3.008482 -0.86432,-4.579277 -2.30563,-4.69585 -7.78018,-7.269814 -12.59997,-5.924117 z m 3.8418,4.27957 c 0.42047,0.420468 0.59216,0.98692 0.59216,1.953738 l 0,1.361587 1.0532,-0.621396 c 1.31608,-0.776508 2.25563,-0.789697 2.93302,-0.04118 0.80748,0.892241 0.38284,1.89692 -1.19173,2.819685 l -1.35392,0.793441 1.32467,0.840081 c 1.44764,0.918059 1.8791,1.731633 1.39654,2.633313 -0.52373,0.978597 -1.3931,1.036673 -2.8385,0.189619 l -1.32328,-0.775497 0,1.278945 c 0,1.535998 -0.66276,2.594998 -1.62405,2.594998 -1.11674,0 -1.63278,-0.75618 -1.63278,-2.3926 l 0,-1.46208 -1.48295,0.77541 c -1.40654,0.73546 -1.52094,0.750508 -2.22058,0.2921 -0.51494,-0.337399 -0.73763,-0.751602 -0.73763,-1.372001 0,-0.736657 0.22795,-1.02637 1.33234,-1.693457 0.7328,-0.442619 1.32814,-0.872351 1.32299,-0.954957 -0.005,-0.08261 -0.60469,-0.511464 -1.33234,-0.953012 -1.06732,-0.64767 -1.32299,-0.965229 -1.32299,-1.643224 0,-1.603503 1.45691,-2.052847 3.1088,-0.958835 0.48855,0.323538 0.98818,0.589129 1.1103,0.590203 0.12212,10e-4 0.22206,-0.620423 0.22206,-1.381097 0,-2.217352 1.3628,-3.17567 2.66467,-1.873789 z"
         style="opacity:1;fill:#e95552;fill-opacity:1;fill-rule:nonzero;stroke:#000000;stroke-width:0;stroke-miterlimit:0;stroke-dasharray:none;stroke-opacity:0" /><path
         inkscape:connector-curvature="0"
         id="path4179"
         d="m 20.161165,100.56878 c 0.50466,1.1806 3.489755,8.19438 6.633544,15.58618 3.764821,8.85199 5.99421,13.73004 6.531063,14.29039 1.775064,1.85277 4.530615,1.78264 6.40843,-0.1631 1.007724,-1.04418 2.060204,-3.31033 7.442948,-16.02585 3.448089,-8.14533 6.358909,-15.043335 6.468489,-15.328896 0.185831,-0.484264 -0.14047,-0.513754 -4.848556,-0.438224 l -5.047791,0.08098 -3.504635,8.09026 c -1.927549,4.44965 -3.558847,8.14448 -3.625108,8.21074 -0.09945,0.0994 -5.284396,-11.44955 -6.886363,-15.338754 l -0.457329,-1.110284 -5.016127,0 -5.016128,0 0.917563,2.146558 z"
         style="opacity:1;fill:#e95552;fill-opacity:1;fill-rule:nonzero;stroke:#000000;stroke-width:0;stroke-miterlimit:0;stroke-dasharray:none;stroke-opacity:0" /><path
         inkscape:connector-curvature="0"
         id="path4181"
         d="m 55.428606,73.242731 c -0.520389,0.3173 -1.14157,0.883048 -1.380406,1.257217 -0.41555,0.65102 -5.815526,13.369583 -5.815526,13.697309 0,0.08711 2.237947,0.158381 4.973216,0.158381 l 4.973215,0 2.13261,-5.053812 c 1.312622,-3.110627 2.13261,-5.462827 2.13261,-6.117567 0,-1.452263 -1.220437,-3.441604 -2.477275,-4.038011 -1.381307,-0.655474 -3.374702,-0.613097 -4.538444,0.09648 z"
         style="opacity:1;fill:#e95552;fill-opacity:1;fill-rule:nonzero;stroke:#000000;stroke-width:0;stroke-miterlimit:0;stroke-dasharray:none;stroke-opacity:0" /><path
         inkscape:connector-curvature="0"
         id="path4183"
         d="m 97.387393,72.994038 c -0.975509,0.389216 -1.737069,1.103247 -2.330989,2.185516 -0.42661,0.77738 -0.506399,2.604105 -0.635862,14.557543 l -0.148038,13.668613 -0.897384,1.27622 c -0.493562,0.70193 -1.548988,1.67908 -2.345392,2.17146 -1.259684,0.7788 -1.720565,0.89422 -3.543756,0.88742 -4.278422,-0.0159 -6.918896,-2.64078 -7.214785,-7.17203 l -0.140168,-2.146554 -4.550244,0 -4.550244,0 0,2.306404 c 0,6.88404 4.380215,13.16388 10.818364,15.5101 2.650578,0.96594 7.444524,1.10284 10.117436,0.28891 5.145819,-1.56695 9.125599,-5.37106 11.011299,-10.52526 l 0.76931,-2.10275 0,-14.115606 c 0,-13.858541 -0.0113,-14.130838 -0.61938,-14.951842 -1.42868,-1.928904 -3.694315,-2.654414 -5.740167,-1.838144 z"
         style="opacity:1;fill:#e95552;fill-opacity:1;fill-rule:nonzero;stroke:#000000;stroke-width:0;stroke-miterlimit:0;stroke-dasharray:none;stroke-opacity:0" /><path
         inkscape:connector-curvature="0"
         id="path4185"
         d="m 73.991293,72.890454 c -2.75474,1.347655 -2.960762,1.999406 -2.960762,9.366351 l 0,6.098833 4.589181,0 4.589179,0 0,-6.098833 c 0,-6.755577 -0.171097,-7.561853 -1.859847,-8.764351 -0.929713,-0.662011 -3.507237,-1.018085 -4.357751,-0.602 z"
         style="opacity:1;fill:#e95552;fill-opacity:1;fill-rule:nonzero;stroke:#000000;stroke-width:0;stroke-miterlimit:0;stroke-dasharray:none;stroke-opacity:0" /><path
         inkscape:connector-curvature="0"
         id="path4187"
         d="m 114.99783,73.08156 c -1.19505,0.531149 -2.17305,1.640826 -2.52372,2.863537 -0.38157,1.330462 -0.36675,24.660463 0.0174,27.362383 0.63015,4.43236 3.80893,9.15658 7.7262,11.48245 3.10528,1.84375 5.34661,2.38221 9.23846,2.21946 3.86144,-0.16148 5.85642,-0.83767 8.91889,-3.02301 4.21294,-3.00629 6.67451,-7.89577 6.67451,-13.25775 l 0,-2.306404 -4.58918,0 -4.58918,0 0,1.739234 c 0,3.16648 -1.36513,5.56064 -3.92206,6.87845 -3.29725,1.69937 -7.46238,0.52936 -9.31098,-2.61551 l -0.83057,-1.413 -0.14804,-13.471456 c -0.14191,-12.913791 -0.17321,-13.51432 -0.7562,-14.506723 -1.24891,-2.126009 -3.69466,-2.934283 -5.90551,-1.951661 z"
         style="opacity:1;fill:#e95552;fill-opacity:1;fill-rule:nonzero;stroke:#000000;stroke-width:0;stroke-miterlimit:0;stroke-dasharray:none;stroke-opacity:0" /><path
         inkscape:connector-curvature="0"
         id="path4189"
         d="m 138.24685,73.31045 c -0.56607,0.384776 -1.33217,1.149134 -1.70244,1.698577 -0.64677,0.959749 -0.67322,1.241464 -0.67322,7.1728 l 0,6.173811 4.58919,0 4.58917,0 0,-6.098833 c 0,-6.755577 -0.17109,-7.561853 -1.85984,-8.764351 -1.37521,-0.979237 -3.64693,-1.062883 -4.94286,-0.182004 z"
         style="opacity:1;fill:#e95552;fill-opacity:1;fill-rule:nonzero;stroke:#000000;stroke-width:0;stroke-miterlimit:0;stroke-dasharray:none;stroke-opacity:0" /><path
         inkscape:connector-curvature="0"
         id="path4191"
         d="m 166.15153,73.089027 c -2.8176,0.68274 -5.40693,2.186034 -7.63951,4.435291 -2.3469,2.364425 -3.75767,4.790632 -4.42037,7.60204 -0.82363,3.494161 -1.1717,3.22928 4.24349,3.22928 l 4.69937,0 0.17844,-1.115848 c 0.25112,-1.570462 1.68023,-3.369666 3.43521,-4.324849 3.14216,-1.710173 7.18637,-0.773688 9.30958,2.155743 l 0.91999,1.269332 0.0875,8.122901 0.0875,8.122903 -0.82765,1.5223 c -2.79665,5.14393 -10.44893,4.86005 -12.67554,-0.47023 -0.2642,-0.63247 -0.55706,-2.06475 -0.6508,-3.18281 l -0.17042,-2.032854 -4.54624,0 -4.54624,0 0,2.306404 c 0,6.86441 4.39857,13.17056 10.81836,15.5101 2.65545,0.96772 7.44664,1.10315 10.11744,0.28599 5.77853,-1.768 10.277,-6.59814 11.48243,-12.32901 0.60415,-2.87228 0.61245,-15.747283 0.012,-18.580926 -1.25618,-5.927949 -6.16056,-10.979647 -12.13717,-12.50176 -2.09857,-0.53446 -5.62571,-0.545344 -7.77726,-0.024 l 1e-5,1.5e-5 z"
         style="opacity:1;fill:#e95552;fill-opacity:1;fill-rule:nonzero;stroke:#000000;stroke-width:0;stroke-miterlimit:0;stroke-dasharray:none;stroke-opacity:0" /><path
         inkscape:connector-curvature="0"
         id="path4193"
         d="m 194.85367,112.90857 c 0.0828,14.16731 0.0984,14.50475 0.70408,15.32194 2.15431,2.90635 5.78417,2.90659 7.93961,5.2e-4 0.56421,-0.7607 0.6281,-1.30784 0.71737,-6.14357 l 0.098,-5.30851 7.89605,-10e-4 c 7.35678,-0.001 7.96197,-0.0413 8.86102,-0.58945 1.55592,-0.94866 2.19455,-2.23586 2.07066,-4.17359 -0.11926,-1.86543 -0.85078,-3.05254 -2.39318,-3.88367 -0.8151,-0.43922 -1.9605,-0.50736 -8.71051,-0.51813 l -7.772,-0.0124 0,-4.58918 0,-4.589177 -4.7479,0 -4.74791,0 0.0847,14.486347 z"
         style="opacity:1;fill:#e95552;fill-opacity:1;fill-rule:nonzero;stroke:#000000;stroke-width:0;stroke-miterlimit:0;stroke-dasharray:none;stroke-opacity:0" /><path
         inkscape:connector-curvature="0"
         id="path4195"
         d="m 207.79167,72.974823 c -6.86575,1.627012 -11.80706,7.132412 -12.80836,14.270531 l -0.15574,1.110284 4.65396,0 4.65397,0 0.38658,-1.309267 c 1.65282,-5.597761 9.42187,-6.70271 12.65028,-1.799181 1.67851,2.549445 2.49824,3.383714 3.66955,3.734647 2.9213,0.875241 5.92464,-1.361916 5.92464,-4.413195 0,-1.859277 -1.58458,-4.659182 -3.97279,-7.019781 -2.24198,-2.216073 -4.76779,-3.698098 -7.57641,-4.445489 -1.75526,-0.467086 -5.70833,-0.535518 -7.42568,-0.128549 z"
         style="opacity:1;fill:#e95552;fill-opacity:1;fill-rule:nonzero;stroke:#000000;stroke-width:0;stroke-miterlimit:0;stroke-dasharray:none;stroke-opacity:0" /></g></g></svg>