<svg id="Layer_1" data-name="Layer 1" xmlns="http://www.w3.org/2000/svg" viewBox="0 0 560 210">
  <defs>
    <style>
      .cls-1 {
        fill: #ffde55;
      }

      .cls-2 {
        fill: #2bc6bf;
      }

      .cls-3 {
        fill: #f0503c;
      }

      .cls-4 {
        fill: #53cff8;
      }

      .cls-5 {
        fill: #70529f;
      }

      .cls-6 {
        fill: #284086;
      }

      .cls-7 {
        fill: #ffb133;
      }
    </style>
  </defs>
  <g>
    <g>
      <path d="M181.1139,124.59h-4.8733V83.8472h5.573c4.8272,0,17.3884,3.3013,17.3884,20.5238S185.3827,124.59,181.1139,124.59m1.1021-53.5881h-21.15v66.4378h20.4963c13.6858,0,33.5128-8.4582,33.5128-33.0683S193.6633,71.0015,182.216,71.0015"/>
      <path d="M243.2265,127.2121a11.47,11.47,0,1,1,11.2236-11.467,11.3472,11.3472,0,0,1-11.2236,11.467m12.1118-33.1075v6.07l-1.8126-2.0392a16.5552,16.5552,0,0,0-12.5906-5.5544,21.7485,21.7485,0,0,0-15.32,6.099c-2.4573,2.5064-6.5789,8.1108-6.5789,17.4669a22.0456,22.0456,0,0,0,6.1059,15.9674A20.246,20.246,0,0,0,240.4356,139c3.25,0,9.2648-.788,13.0214-6.0725l1.8813-2.6457v7.1942H267.83V94.1046Z"/>
      <path d="M331.1265,127.2121a11.47,11.47,0,1,1,11.2216-11.467,11.3474,11.3474,0,0,1-11.2216,11.467m12.1107-33.1075v6.07l-1.8116-2.0392a16.56,16.56,0,0,0-12.5915-5.5544,21.7428,21.7428,0,0,0-15.3188,6.099c-2.4583,2.5064-6.5809,8.1108-6.5809,17.4669a22.05,22.05,0,0,0,6.1059,15.9674A20.2483,20.2483,0,0,0,328.3346,139c3.2511,0,9.2638-.788,13.0214-6.0725l1.8812-2.6457v7.1942h12.4915V94.1046Z"/>
      <polygon points="281.233 71.02 281.233 94.111 276.144 94.111 276.144 105.334 281.233 105.334 281.233 137.477 295.11 137.477 295.11 105.334 304.184 105.334 304.184 94.111 295.11 94.111 295.11 71.02 281.233 71.02"/>
      <polygon points="469.095 71 469.095 137.483 482.973 137.483 482.973 105.339 492.048 105.339 492.048 94.115 482.973 94.115 482.973 71 469.095 71"/>
      <path d="M395.3,86.6439l9.625,28.28H385.9319Zm-8.4709-15.6377-24.99,66.426H377.46l4.579-11.6308h26.5894l4.1756,11.6308h15.8045l-24.5031-66.426Z"/>
      <path d="M433.6551,137.484h13.8781V119.0878c0-1.8508,0-7.4847,3.9195-11.1353,1.9686-1.83,4.5809-2.72,7.9881-2.72,2.3474,0,4.9185.057,5.8429.0795v-11.16c-.6418-.0392-2.76-.1511-2.76-.1511-2.684,0-5.2178,0-7.1677,1.0755a13.6071,13.6071,0,0,0-5.8636,5.8783l-1.96,3.7428V94.1107H433.6551Z"/>
    </g>
    <g>
      <rect class="cls-1" x="106.035" y="92.4737" width="23.4888" height="23.4888" transform="translate(108.1901 -52.7578) rotate(45)"/>
      <polygon class="cls-2" points="134.388 104.218 117.779 87.609 134.388 71 134.388 104.218"/>
      <polygon class="cls-3" points="84.561 120.827 101.17 104.218 117.779 120.827 84.561 120.827"/>
      <polygon class="cls-4" points="101.17 137.436 134.388 104.218 134.388 137.436 101.17 137.436"/>
      <polygon class="cls-5" points="101.17 137.436 117.779 120.827 84.561 120.827 67.952 137.436 101.17 137.436"/>
      <polygon class="cls-6" points="67.952 71 101.17 104.218 134.388 71 67.952 71"/>
      <polygon class="cls-7" points="67.952 137.436 101.17 104.218 67.952 71 67.952 137.436"/>
    </g>
  </g>
</svg>
