<?xml version="1.0" encoding="iso-8859-1"?>
<!-- Generator: Adobe Illustrator 25.2.1, SVG Export Plug-In . SVG Version: 6.00 Build 0)  -->
<!DOCTYPE svg PUBLIC "-//W3C//DTD SVG 1.1//EN" "http://www.w3.org/Graphics/SVG/1.1/DTD/svg11.dtd" [
	<!ENTITY ns_extend "http://ns.adobe.com/Extensibility/1.0/">
	<!ENTITY ns_ai "http://ns.adobe.com/AdobeIllustrator/10.0/">
	<!ENTITY ns_graphs "http://ns.adobe.com/Graphs/1.0/">
	<!ENTITY ns_vars "http://ns.adobe.com/Variables/1.0/">
	<!ENTITY ns_imrep "http://ns.adobe.com/ImageReplacement/1.0/">
	<!ENTITY ns_sfw "http://ns.adobe.com/SaveForWeb/1.0/">
	<!ENTITY ns_custom "http://ns.adobe.com/GenericCustomNamespace/1.0/">
	<!ENTITY ns_adobe_xpath "http://ns.adobe.com/XPath/1.0/">
]>
<svg version="1.1" id="Capa_1" xmlns:x="&ns_extend;" xmlns:i="&ns_ai;" xmlns:graph="&ns_graphs;"
	 xmlns="http://www.w3.org/2000/svg" xmlns:xlink="http://www.w3.org/1999/xlink" x="0px" y="0px" width="1801.062px"
	 height="560.708px" viewBox="0 0 1801.062 560.708" enable-background="new 0 0 1801.062 560.708" xml:space="preserve">
<metadata>
	<sfw  xmlns="&ns_sfw;">
		<slices></slices>
		<sliceSourceBounds  bottomLeftOrigin="true" height="15224.778" width="9271.016" x="-896.089" y="-8152.69"></sliceSourceBounds>
	</sfw>
</metadata>
<g>
	<path fill="#FF8057" d="M314.337,169.911h-84.234c-8.844,0-16.014,7.17-16.014,16.014v0c0,8.844,7.17,16.014,16.014,16.014h38.472
		c8.539,0,15.462,6.922,15.462,15.462v0c0,8.539-6.923,15.462-15.462,15.462h-82.648c-8.844,0-16.014,7.17-16.014,16.014v0
		c0,8.844,7.17,16.014,16.014,16.014h60.56c8.539,0,15.462,6.922,15.462,15.462v0c0,8.539-6.923,15.462-15.462,15.462h-60.56
		c-8.844,0-16.014,7.17-16.014,16.014v0c0,8.844,7.17,16.014,16.014,16.014h82.649c8.539,0,15.462,6.922,15.462,15.462v0
		c0,8.539-6.923,15.462-15.462,15.462h-38.471c-8.844,0-16.014,7.17-16.014,16.014v0c0,8.844,7.17,16.014,16.014,16.014h84.234
		c60.996,0,110.442-49.447,110.442-110.442v-0.001C424.779,219.358,375.332,169.911,314.337,169.911z"/>
	<g>
		<path fill="#FF8057" d="M681.438,198.827h71.752c53.226,0,89.571,32.827,89.571,82.069s-36.345,82.069-89.571,82.069h-71.752
			V198.827z M751.781,337.172c36.579,0,60.262-22.277,60.262-56.276c0-34.001-23.683-56.276-60.262-56.276h-39.862v112.552H751.781z
			"/>
		<path fill="#262B54" d="M866.549,345.614l10.549-23.684c13.133,10.552,34.001,18.056,54.167,18.056
			c25.559,0,36.345-9.145,36.345-21.338c0-35.407-97.545-12.192-97.545-73.158c0-26.497,21.104-49.008,66.125-49.008
			c19.696,0,40.329,5.159,54.635,14.538l-9.614,23.684c-14.773-8.677-30.952-12.897-45.258-12.897
			c-25.322,0-35.641,9.848-35.641,22.275c0,34.938,97.311,12.194,97.311,72.455c0,26.262-21.338,48.773-66.359,48.773
			C905.706,365.31,880.147,357.339,866.549,345.614z"/>
		<path fill="#262B54" d="M1161.494,257.214c0,36.11-26.731,58.387-69.876,58.387h-37.05v47.365h-30.482V198.827h67.531
			C1134.763,198.827,1161.494,220.868,1161.494,257.214z M1130.776,257.214c0-20.635-13.835-32.594-40.566-32.594h-35.641v65.187
			h35.641C1116.941,289.807,1130.776,277.848,1130.776,257.214z"/>
		<path fill="#262B54" d="M1191.976,198.827h30.482v164.138h-30.482V198.827z"/>
		<path fill="#262B54" d="M1374.164,362.965l-33.533-48.07c-2.108,0.235-4.218,0.235-6.328,0.235h-37.05v47.834h-30.482V198.827
			h67.531c43.144,0,69.876,22.041,69.876,58.387c0,24.855-12.663,43.144-34.939,51.82l37.751,53.932H1374.164z M1332.893,224.62
			h-35.641v65.421h35.641c26.731,0,40.566-12.194,40.566-32.827C1373.46,236.578,1359.625,224.62,1332.893,224.62z"/>
		<path fill="#262B54" d="M1438.176,198.827h30.482v164.138h-30.482V198.827z"/>
		<path fill="#262B54" d="M1546.268,224.62h-54.401v-25.793h139.284v25.793h-54.401v138.345h-30.482V224.62z"/>
		<path fill="#FF8057" d="M557.216,266.96l0.004-0.102l0.009-0.204l0.017-0.407l0.027-0.815l0.04-1.633
			c-0.043-1.099,0.176-2.164,0.305-3.241c0.154-2.181,0.804-4.26,1.249-6.393c1.266-4.165,3.127-8.153,5.507-11.85
			c4.894-7.282,11.999-13.277,20.303-16.469c2.032-0.928,4.214-1.399,6.352-2.052c2.206-0.331,4.387-0.896,6.65-0.932
			c1.944-0.231,5.218-0.232,8.098-0.289l8.81-0.154l35.241-0.618v-25.548l-35.241-0.617l-8.81-0.154
			c-2.992-0.033-5.597-0.178-9.514,0.017c-3.629,0.003-7.223,0.643-10.825,1.157c-3.542,0.837-7.12,1.601-10.529,2.931
			c-13.818,4.799-25.939,14.116-34.542,26.013c-4.238,6.005-7.632,12.625-10.007,19.641c-0.997,3.555-2.093,7.11-2.578,10.785
			c-0.294,1.827-0.652,3.652-0.716,5.499l-0.182,2.767l-0.084,1.385l-0.039,0.693l-0.019,0.346l-0.01,0.173l-0.004,0.087
			l-0.001,0.086v25.021h-0.001l0.003,0.155l0.004,0.087l0.01,0.173l0.019,0.346l0.039,0.693l0.084,1.385l0.182,2.767
			c0.064,1.847,0.422,3.672,0.716,5.499c0.485,3.675,1.581,7.23,2.578,10.785c2.375,7.016,5.768,13.636,10.007,19.641
			c8.603,11.897,20.725,21.214,34.542,26.013c3.41,1.33,6.987,2.094,10.529,2.931c3.602,0.514,7.196,1.154,10.825,1.157
			c3.918,0.195,6.522,0.05,9.514,0.017l8.81-0.154l35.241-0.618v-25.548l-35.241-0.617l-8.81-0.154
			c-2.88-0.057-6.154-0.058-8.098-0.289c-2.263-0.036-4.445-0.602-6.65-0.932c-2.138-0.653-4.319-1.124-6.352-2.052
			c-8.305-3.192-15.41-9.186-20.303-16.469c-2.38-3.698-4.241-7.686-5.507-11.85c-0.445-2.133-1.094-4.212-1.249-6.392
			c-0.128-1.078-0.348-2.143-0.305-3.242l-0.04-1.633l-0.027-0.815l-0.017-0.407l-0.009-0.204l-0.004-0.102l-0.001-0.051v-0.051
			h79.25v-25.09h-79.25v-0.051L557.216,266.96z"/>
	</g>
</g>
</svg>
