<svg id="Layer_1" data-name="Layer 1" xmlns="http://www.w3.org/2000/svg" viewBox="0 0 680.42 120.07"><defs><style>.cls-1{fill:#056eff;}.cls-2{fill:#5bb949;}</style></defs><title>LearningMate-logo_new</title><polygon class="cls-1" points="440.33 19 464.97 84.7 489.72 19 503.96 19 503.96 97.18 494.1 97.18 494.1 32.14 493.88 32.14 469.46 97.18 460.58 97.18 436.17 32.14 435.95 32.14 435.95 97.18 426.09 97.18 426.09 19 440.33 19"/><path class="cls-1" d="M621.18,341.67a8,8,0,0,1-5.75-2c-1.42-1.35-2.14-3.56-2.14-6.63a22.22,22.22,0,0,1-8.92,6.63,29.53,29.53,0,0,1-11,2,30.62,30.62,0,0,1-7.23-.83,16.22,16.22,0,0,1-6-2.74,13.19,13.19,0,0,1-4-4.92,16.35,16.35,0,0,1-1.48-7.28,16.68,16.68,0,0,1,1.64-7.89,14.25,14.25,0,0,1,4.32-5,20,20,0,0,1,6.14-2.89c2.29-.66,4.65-1.21,7.06-1.65,2.56-.51,5-.89,7.28-1.15a39.16,39.16,0,0,0,6.08-1.1,10,10,0,0,0,4.16-2.07,5.06,5.06,0,0,0,1.54-4,9.37,9.37,0,0,0-1.15-4.93,7.81,7.81,0,0,0-3-2.84,12.06,12.06,0,0,0-4-1.32,30.57,30.57,0,0,0-4.44-.33,19.72,19.72,0,0,0-9.85,2.24c-2.64,1.51-4.06,4.33-4.28,8.49h-9.31A20.37,20.37,0,0,1,579,292.6a16.79,16.79,0,0,1,5.26-5.86,22.38,22.38,0,0,1,7.56-3.23,40.25,40.25,0,0,1,9-1,52.24,52.24,0,0,1,7.61.55,19.75,19.75,0,0,1,6.84,2.24,13,13,0,0,1,4.93,4.77,15.22,15.22,0,0,1,1.86,8v29.13a21.42,21.42,0,0,0,.39,4.82c.25,1,1.11,1.53,2.57,1.53a9,9,0,0,0,2.85-.55v7.23a13.18,13.18,0,0,1-6.68,1.43m-13-28.53q-2.85.6-6,1t-6.3.88a22.85,22.85,0,0,0-5.69,1.59,10.29,10.29,0,0,0-4.11,3.12,8.72,8.72,0,0,0-1.58,5.53,7.59,7.59,0,0,0,.92,3.89,8,8,0,0,0,2.41,2.57,10.07,10.07,0,0,0,3.51,1.42,19.45,19.45,0,0,0,4.11.44,22,22,0,0,0,7.88-1.26,16.89,16.89,0,0,0,5.37-3.17,12.67,12.67,0,0,0,3.06-4.17,10.46,10.46,0,0,0,1-4.22v-9.52a11.57,11.57,0,0,1-4.6,1.92" transform="translate(-57.98 -243.27)"/><path class="cls-1" d="M660.71,283.84v8.22H649.43v35.15a10.35,10.35,0,0,0,.27,2.63,2.7,2.7,0,0,0,1,1.53,4.69,4.69,0,0,0,2.14.71,31.07,31.07,0,0,0,3.56.16h4.27v8.22h-7.12a34.15,34.15,0,0,1-6.18-.49,9.19,9.19,0,0,1-4.17-1.81,7.74,7.74,0,0,1-2.35-3.72,21.27,21.27,0,0,1-.77-6.36v-36h-9.64v-8.22h9.64v-17h9.31v17Z" transform="translate(-57.98 -243.27)"/><path class="cls-1" d="M711.08,336.84q-6.35,4.83-16,4.83a29.1,29.1,0,0,1-11.78-2.2,23.15,23.15,0,0,1-8.38-6.13,26,26,0,0,1-5.09-9.42A45.55,45.55,0,0,1,667.93,312a33.93,33.93,0,0,1,2-11.82,28.49,28.49,0,0,1,5.52-9.31,25.15,25.15,0,0,1,8.44-6.13,25.76,25.76,0,0,1,10.68-2.19q7.55,0,12.54,3.12a24.74,24.74,0,0,1,8,7.94,31.42,31.42,0,0,1,4.16,10.51,45.28,45.28,0,0,1,.94,10.84H677.79a22.44,22.44,0,0,0,.88,7.06,16.07,16.07,0,0,0,3.17,5.92,15.86,15.86,0,0,0,5.59,4.11,19.32,19.32,0,0,0,8,1.53,16.08,16.08,0,0,0,9.69-2.74,13.27,13.27,0,0,0,5-8.32h9.2q-1.86,9.53-8.22,14.34m-2.24-36.36A15.85,15.85,0,0,0,694,290.74a16.24,16.24,0,0,0-6.52,1.26,15.12,15.12,0,0,0-5,3.45,16.63,16.63,0,0,0-3.29,5.09,19.63,19.63,0,0,0-1.42,6.19h32.53a19.24,19.24,0,0,0-1.48-6.25" transform="translate(-57.98 -243.27)"/><path d="M711.78,260.45V245.3h-5.66v-2h13.62v2h-5.69v15.15Z" transform="translate(-57.98 -243.27)"/><path d="M722,260.45V243.27h3.42l4.07,12.17c.37,1.13.65,2,.82,2.54.19-.63.5-1.54.91-2.75l4.12-12h3v17.18H736.2V246.07l-5,14.38h-2.05l-5-14.62v14.62Z" transform="translate(-57.98 -243.27)"/><polygon class="cls-2" points="10.4 19 10.4 88.42 51.8 88.42 51.8 97.18 0 97.18 0 19 10.4 19"/><path class="cls-2" d="M157.41,336.84q-6.34,4.83-16,4.83a29.1,29.1,0,0,1-11.78-2.2,23.06,23.06,0,0,1-8.38-6.13,26,26,0,0,1-5.09-9.42A45.55,45.55,0,0,1,114.26,312a34.17,34.17,0,0,1,2-11.82,28.49,28.49,0,0,1,5.52-9.31,25.15,25.15,0,0,1,8.44-6.13,25.76,25.76,0,0,1,10.68-2.19c5,0,9.21,1,12.54,3.12a24.84,24.84,0,0,1,8,7.94,31.42,31.42,0,0,1,4.16,10.51,45.28,45.28,0,0,1,.94,10.84H124.12A22.44,22.44,0,0,0,125,322a15.8,15.8,0,0,0,3.18,5.92,15.64,15.64,0,0,0,5.58,4.11,19.32,19.32,0,0,0,8,1.53,16.08,16.08,0,0,0,9.69-2.74,13.27,13.27,0,0,0,5-8.32h9.19q-1.86,9.53-8.21,14.34m-2.24-36.36a15.85,15.85,0,0,0-14.84-9.74,16.24,16.24,0,0,0-6.52,1.26,15.12,15.12,0,0,0-5,3.45,16.63,16.63,0,0,0-3.29,5.09,19.63,19.63,0,0,0-1.42,6.19h32.52a19,19,0,0,0-1.47-6.25" transform="translate(-57.98 -243.27)"/><path class="cls-2" d="M219.61,341.67a8,8,0,0,1-5.75-2c-1.42-1.35-2.14-3.56-2.14-6.63a22.22,22.22,0,0,1-8.92,6.63,29.48,29.48,0,0,1-11,2,30.56,30.56,0,0,1-7.23-.83,16.27,16.27,0,0,1-6-2.74,13.19,13.19,0,0,1-4-4.92,16.35,16.35,0,0,1-1.48-7.28,16.68,16.68,0,0,1,1.64-7.89,14.27,14.27,0,0,1,4.33-5,19.92,19.92,0,0,1,6.13-2.89q3.45-1,7.06-1.65c2.56-.51,5-.89,7.29-1.15a39.38,39.38,0,0,0,6.08-1.1,10,10,0,0,0,4.16-2.07,5.09,5.09,0,0,0,1.53-4,9.27,9.27,0,0,0-1.15-4.93,7.74,7.74,0,0,0-3-2.84,11.92,11.92,0,0,0-4.05-1.32,30.57,30.57,0,0,0-4.44-.33,19.72,19.72,0,0,0-9.85,2.24c-2.63,1.51-4.05,4.33-4.27,8.49h-9.31a20.1,20.1,0,0,1,2.19-8.87,16.59,16.59,0,0,1,5.26-5.86,22.24,22.24,0,0,1,7.55-3.23,40.25,40.25,0,0,1,9-1,52.14,52.14,0,0,1,7.61.55,19.81,19.81,0,0,1,6.85,2.24,13.11,13.11,0,0,1,4.93,4.77,15.32,15.32,0,0,1,1.85,8v29.13a22,22,0,0,0,.39,4.82c.25,1,1.12,1.53,2.58,1.53a9,9,0,0,0,2.84-.55v7.23a13.15,13.15,0,0,1-6.68,1.43m-13-28.53c-1.9.4-3.88.73-6,1s-4.19.55-6.3.88a22.81,22.81,0,0,0-5.7,1.59,10.29,10.29,0,0,0-4.11,3.12,8.72,8.72,0,0,0-1.58,5.53,7.59,7.59,0,0,0,.93,3.89,7.81,7.81,0,0,0,2.41,2.57,9.94,9.94,0,0,0,3.5,1.42,19.52,19.52,0,0,0,4.11.44,22,22,0,0,0,7.88-1.26,16.78,16.78,0,0,0,5.37-3.17A12.7,12.7,0,0,0,210.2,325a10.6,10.6,0,0,0,1-4.22v-9.52a11.51,11.51,0,0,1-4.6,1.92" transform="translate(-57.98 -243.27)"/><path class="cls-2" d="M243.37,283.84v11.94h.23q3.39-6.9,8.31-10.18t12.49-3.07v9.86a26.1,26.1,0,0,0-9.52,1.53,15,15,0,0,0-6.36,4.49,18.36,18.36,0,0,0-3.5,7.17,38.22,38.22,0,0,0-1.1,9.69v25.19h-9.3V283.84Z" transform="translate(-57.98 -243.27)"/><path class="cls-2" d="M282.14,283.84v9h.21q5.81-10.29,18.41-10.29a24.57,24.57,0,0,1,9.3,1.53,15.27,15.27,0,0,1,6,4.27,15.69,15.69,0,0,1,3.23,6.52,35,35,0,0,1,.94,8.37v37.24h-9.31V302.13a11.26,11.26,0,0,0-3.07-8.32q-3.06-3.07-8.43-3.07a18.87,18.87,0,0,0-7.39,1.32,13.8,13.8,0,0,0-5.21,3.72,16,16,0,0,0-3.11,5.64,22.73,22.73,0,0,0-1,7.06v32h-9.32V283.84Z" transform="translate(-57.98 -243.27)"/><path class="cls-2" d="M334.82,262.27h9.3v11.39h-9.3Zm9.3,78.19h-9.3V283.84h9.3Z" transform="translate(-57.98 -243.27)"/><path class="cls-2" d="M367.33,283.84v9h.22q5.81-10.29,18.4-10.29a24.59,24.59,0,0,1,9.31,1.53,15.42,15.42,0,0,1,6,4.27,15.81,15.81,0,0,1,3.23,6.52,35,35,0,0,1,.94,8.37v37.24h-9.31V302.13a11.26,11.26,0,0,0-3.07-8.32q-3.07-3.07-8.43-3.07a18.84,18.84,0,0,0-7.39,1.32,13.8,13.8,0,0,0-5.21,3.72,16,16,0,0,0-3.12,5.64,23,23,0,0,0-1,7.06v32h-9.31V283.84Z" transform="translate(-57.98 -243.27)"/><path class="cls-2" d="M462,356.45q-6.36,6.89-19.93,6.9a38.14,38.14,0,0,1-8-.88,24.8,24.8,0,0,1-7.45-2.85,17.29,17.29,0,0,1-5.52-5.14,14.72,14.72,0,0,1-2.42-7.78h9.31a7,7,0,0,0,1.59,4.27,11.64,11.64,0,0,0,3.61,2.85,18,18,0,0,0,4.66,1.59,24.87,24.87,0,0,0,4.82.49,17.35,17.35,0,0,0,7.77-1.59,14.64,14.64,0,0,0,5.26-4.38,18,18,0,0,0,3-6.73,37.7,37.7,0,0,0,.93-8.66v-3.72h-.22a15.62,15.62,0,0,1-7.28,7.72A22.66,22.66,0,0,1,441.69,341a25,25,0,0,1-11.06-2.29,23.14,23.14,0,0,1-7.88-6.19,26.12,26.12,0,0,1-4.76-9.09,37.16,37.16,0,0,1-1.59-11,42.78,42.78,0,0,1,1.31-10.34,28.07,28.07,0,0,1,4.38-9.64,24,24,0,0,1,8.11-7.12,25.17,25.17,0,0,1,12.37-2.79,21,21,0,0,1,9.86,2.35,16.59,16.59,0,0,1,7,7.07h.11v-8.11h8.76v51.8q0,13.91-6.35,20.81M450.07,331a15.42,15.42,0,0,0,5.21-5,23.41,23.41,0,0,0,2.89-7.06,33.8,33.8,0,0,0,.93-7.89,31.14,31.14,0,0,0-.87-7.33,20.64,20.64,0,0,0-2.79-6.52,14.48,14.48,0,0,0-5-4.66,14.86,14.86,0,0,0-7.44-1.75,16.06,16.06,0,0,0-7.67,1.7,14.82,14.82,0,0,0-5.2,4.54,19.31,19.31,0,0,0-3,6.57,32.06,32.06,0,0,0-.93,7.78A39.71,39.71,0,0,0,427,319a21.81,21.81,0,0,0,2.64,7,14.83,14.83,0,0,0,4.92,5,14.19,14.19,0,0,0,7.67,1.91,15.07,15.07,0,0,0,7.83-1.91" transform="translate(-57.98 -243.27)"/></svg>