<?xml version="1.0" encoding="UTF-8" standalone="no"?>
<!-- Created with Inkscape (http://www.inkscape.org/) -->

<svg
   xmlns:dc="http://purl.org/dc/elements/1.1/"
   xmlns:cc="http://creativecommons.org/ns#"
   xmlns:rdf="http://www.w3.org/1999/02/22-rdf-syntax-ns#"
   xmlns:svg="http://www.w3.org/2000/svg"
   xmlns="http://www.w3.org/2000/svg"
   xmlns:sodipodi="http://sodipodi.sourceforge.net/DTD/sodipodi-0.dtd"
   xmlns:inkscape="http://www.inkscape.org/namespaces/inkscape"
   width="195.65726"
   height="59.06818"
   viewBox="0 0 51.76765 15.628456"
   version="1.1"
   id="svg9820"
   inkscape:version="0.92.0 r15299"
   sodipodi:docname="pearson2.svg">
  <defs
     id="defs9814" />
  <sodipodi:namedview
     id="base"
     pagecolor="#ffffff"
     bordercolor="#666666"
     borderopacity="1.0"
     inkscape:pageopacity="0.0"
     inkscape:pageshadow="2"
     inkscape:zoom="4.6080994"
     inkscape:cx="97.32863"
     inkscape:cy="29.034089"
     inkscape:document-units="mm"
     inkscape:current-layer="layer1"
     showgrid="false"
     fit-margin-top="0"
     fit-margin-left="0"
     fit-margin-right="0"
     fit-margin-bottom="0"
     units="px"
     inkscape:window-width="1280"
     inkscape:window-height="744"
     inkscape:window-x="-4"
     inkscape:window-y="-4"
     inkscape:window-maximized="1" />
  <metadata
     id="metadata9817">
    <rdf:RDF>
      <cc:Work
         rdf:about="">
        <dc:format>image/svg+xml</dc:format>
        <dc:type
           rdf:resource="http://purl.org/dc/dcmitype/StillImage" />
        <dc:title></dc:title>
      </cc:Work>
    </rdf:RDF>
  </metadata>
  <g
     inkscape:label="Layer 1"
     inkscape:groupmode="layer"
     id="layer1"
     transform="translate(-322.74252,-246.72015)">
    <g
       id="g9840"
       transform="matrix(0.26458333,0,0,0.26458333,322.81316,246.8401)">
      <path
         id="wordmark"
         d="m 121.73852,41.251305 c -0.0726,-0.187753 -0.27275,-0.296147 -0.46898,-0.251628 l -0.0608,0.01742 c -0.58081,0.123878 -1.0282,0.08904 -1.34216,-0.120008 -0.44542,-0.296146 -0.66127,-0.965864 -0.66127,-2.045929 v -9.76123 c 0,-3.813132 -2.30365,-5.746796 -6.85209,-5.746796 -4.07162,0 -7.2622,1.900759 -7.2622,4.328001 0,1.248462 0.77116,2.150452 1.90925,2.285944 0.74368,0.08904 1.45401,-0.243886 1.96811,-0.780047 1.00074,-1.041353 0.87319,-2.282072 -0.34142,-3.611829 0.71817,-0.741335 1.98969,-1.178781 3.43978,-1.178781 2.36252,0 3.3711,1.382018 3.3711,4.622213 v 2.46789 c -0.55335,0.168397 -1.07138,0.327116 -2.02109,0.547775 -1.91317,0.443252 -4.53863,1.03361 -6.51852,2.11174 -1.63453,0.884569 -2.46455,2.280136 -2.46455,4.14799 0,2.034316 1.35393,4.409297 5.1685,4.409297 2.13686,0 4.05003,-0.998769 6.01422,-3.143414 0.17072,2.227875 1.02625,3.064055 3.10228,3.064055 0.99877,0 1.7974,-0.230337 2.74712,-0.683267 0.25705,-0.123879 0.37871,-0.41809 0.27275,-0.679396 z m -6.30071,-2.982759 c -0.46309,0.636812 -1.97792,2.531764 -3.86558,2.531764 -2.54894,0 -3.08462,-1.765267 -3.08462,-3.246001 0,-2.434985 1.89158,-3.561504 6.9502,-4.794481 z m 48.88296,4.508012 c -5.40397,0 -9.47951,-4.177025 -9.47951,-9.716712 0,-5.423551 4.25214,-9.83672 9.47951,-9.83672 5.29212,0 9.44027,4.248642 9.44027,9.676065 0,6.101011 -4.89968,9.877367 -9.44027,9.877367 z M 164.1167,24.264479 c -2.33505,0 -5.01741,0.991027 -5.01741,8.714072 0,5.891966 1.76208,8.754719 5.38631,8.754719 3.46725,0 5.01545,-2.698227 5.01545,-8.754719 0,-5.862933 -1.76208,-8.714072 -5.38435,-8.714072 z M 80.775096,23.571534 c 0,4.494464 -1.122393,6.968161 -6.863865,6.968161 H 70.86782 V 16.963396 h 3.167032 c 5.939656,0 6.740244,3.340846 6.740244,6.608138 z M 70.86782,38.851161 v -7.063004 h 2.756926 c 4.112825,0 7.240612,-0.857471 9.298987,-2.551121 2.152561,-1.771074 2.603873,-4.014435 2.603873,-5.584206 0,-6.457162 -6.316404,-7.812082 -11.616375,-7.812082 l 0.02159,-0.0019 H 63.185707 c -0.243316,0 -0.441501,0.197431 -0.441501,0.43551 v 0.02903 -0.0077 c 0,0.220658 0.135394,0.418089 0.347314,0.493578 0.957566,0.348408 3.557515,-0.139363 3.557515,2.611124 v 19.4469 c 0,1.414924 -0.635761,2.413693 -3.541817,2.684677 -0.231543,0.02129 -0.404219,0.207109 -0.404219,0.431639 v 0.06775 c 0,0.240014 0.196223,0.433574 0.439539,0.433574 h 11.482944 c 0.243315,0 0.4415,-0.19356 0.4415,-0.433574 v -0.06 c 0,-0.224529 -0.180524,-0.414218 -0.412067,-0.433574 -3.157221,-0.249692 -3.79102,-1.213621 -3.79102,-2.690484 V 31.801706 Z M 94.218303,23.213448 c -4.997788,0 -9.065482,4.463494 -9.065482,9.95092 0,5.555172 3.812604,9.587027 9.065482,9.587027 4.413045,0 6.561677,-2.601446 7.791997,-4.556402 0.12166,-0.19356 0.0687,-0.449059 -0.1197,-0.582616 l -0.0589,-0.04065 c -0.19034,-0.133557 -0.45524,-0.09484 -0.6024,0.0871 -1.622766,2.007217 -3.043417,3.168577 -5.496199,3.168577 -3.102278,0 -6.416477,-2.107869 -6.416477,-8.026934 v -0.04258 c -0.0059,-0.261306 0,-0.619392 0.0098,-0.954251 h 12.693636 c 0.0353,0 0.0628,-0.0271 0.0648,-0.06194 l 0.008,-0.100651 c 0.18053,-2.425307 -0.51606,-4.606728 -1.96026,-6.137788 -1.410841,-1.498154 -3.45548,-2.289815 -5.914148,-2.289815 z m -4.821188,7.343667 c 0.417954,-4.049275 2.01913,-6.269409 4.534703,-6.269409 1.257787,0 2.191806,0.344537 2.851114,1.052967 0.906548,0.969735 1.291144,2.725325 1.140053,5.216442 z m 57.434335,0.216787 h -0.004 c -3.47118,-0.961993 -4.82315,-1.933664 -4.82315,-3.468595 0,-1.747847 1.40692,-3.017601 3.34559,-3.017601 2.28011,0 3.2573,1.076194 5.66495,5.04611 l 0.0314,0.05226 c 0.0118,0.02129 0.0334,0.0329 0.0334,0.0329 h 0.3532 c 0.24332,0 0.4415,-0.195495 0.4415,-0.43551 v -5.706149 c 0,-0.03484 -0.0294,-0.06387 -0.0294,-0.06387 h -0.4729 c -0.13147,0 -0.25705,0.05807 -0.33946,0.15872 l -0.76919,0.921345 c -0.96934,-0.526483 -2.54893,-1.080065 -4.13441,-1.080065 -3.98724,0 -6.77164,2.429178 -6.77164,5.909387 0,3.267293 2.19573,4.490592 5.98675,5.500976 3.68309,0.994898 4.98994,2.030444 4.98994,3.952495 0,2.138838 -2.09958,3.098896 -3.59088,3.098896 -2.77458,0 -3.94603,-1.01619 -6.60485,-5.727441 l -0.0314,-0.05613 c -0.0118,-0.02129 -0.0334,-0.03484 -0.0334,-0.03484 h -0.35713 c -0.24331,0 -0.4415,0.197431 -0.4415,0.43551 v 6.393287 c 0,0.03678 0.0294,0.06581 0.0667,0.06581 h 0.45131 c 0.11577,0 0.22958,-0.04645 0.312,-0.127749 l 1.21461,-1.198137 c 1.42262,0.87102 3.54967,1.325886 4.93108,1.325886 2.07407,0 3.77924,-0.648426 4.93107,-1.873661 1.0282,-1.093614 1.59333,-2.642094 1.59333,-4.360907 0,-2.976952 -1.61099,-4.533175 -5.94359,-5.742925 z m -21.00562,9.397338 c 0,0.985221 -0.25313,1.308466 -1.84449,1.407182 -0.23154,0.01548 -0.41207,0.205173 -0.41207,0.433574 0,0.240014 0.19819,0.433574 0.4415,0.433574 h 7.85479 c 0.23939,0 0.43365,-0.191624 0.43365,-0.425832 0,-0.232272 -0.18248,-0.423896 -0.41795,-0.433574 -1.81702,-0.0871 -2.28796,-0.377442 -2.28796,-1.414924 V 28.809268 c 1.29311,-2.121418 2.22124,-3.232452 3.79102,-3.567311 -0.0765,0.269049 -0.12558,0.588423 -0.12558,0.849729 0,1.380082 0.97719,2.344011 2.37626,2.344011 1.37355,0 2.33504,-0.963929 2.33504,-2.344011 0,-1.304595 -0.82609,-2.829848 -3.15722,-2.829848 -1.90924,0 -3.73411,1.080065 -5.30193,3.664091 v -2.922756 c 0,-0.298082 -0.2492,-0.538097 -0.55139,-0.530354 l -4.94873,0.131621 c -0.24135,0.0077 -0.42776,0.197431 -0.42776,0.433574 v 0.06194 c 0,0.214852 0.15698,0.398734 0.36693,0.427768 1.65023,0.230336 1.87785,1.004576 1.87589,1.80785 z m 54.32814,-16.710035 c 0.11381,0 0.22369,0.04452 0.30414,0.123879 0.0883,0.0813 0.1354,0.189688 0.13736,0.309696 l 0.0157,3.240194 c 0,0 1.61295,-3.801518 6.84424,-3.801518 h 0.0471 c 3.26122,0 5.13122,2.051736 5.13122,5.628725 V 40.15382 c 0,0.98522 0.25509,1.308466 1.84449,1.407181 0.23155,0.01355 0.41207,0.203238 0.41207,0.433575 0,0.238078 -0.19818,0.433574 -0.43954,0.433574 h -7.05812 c -0.24332,0 -0.4415,-0.195496 -0.4415,-0.43551 0,-0.232272 0.17856,-0.421961 0.40225,-0.441317 1.2833,-0.108393 1.48737,-0.427767 1.48737,-1.397503 V 30.053859 c 0,-3.336975 -0.96149,-4.633826 -3.42801,-4.633826 -1.66789,0 -3.03164,1.434279 -3.88324,2.638222 0,0 -0.43562,0.538097 -0.90655,1.552352 l 0.051,10.541277 c 0,0.969736 0.20014,1.28911 1.44616,1.397504 0.22369,0.01936 0.40029,0.21098 0.40029,0.433574 0,0.249692 -0.19818,0.445188 -0.43954,0.445188 h -7.01495 c -0.24136,0 -0.43954,-0.195496 -0.43954,-0.43551 0,-0.228401 0.18249,-0.41809 0.41207,-0.433574 1.5894,-0.09872 1.84253,-0.420026 1.84253,-1.405246 V 26.337507 c 0,-0.80521 -0.22762,-1.583321 -1.8857,-1.815593 -0.20996,-0.02903 -0.3689,-0.214852 -0.3689,-0.429703 v -0.06387 c 0,-0.238079 0.18837,-0.427767 0.42973,-0.43551 z"
         inkscape:connector-curvature="0"
         style="fill:#3d3935" />
      <path
         id="thumbprint"
         d="M 42.276232,3.7858309 C 54.714779,10.777218 57.611024,26.451707 48.955648,42.312014 41.350062,56.252206 24.741785,62.206111 12.366029,55.110202 -0.0116891,48.010421 -2.4271887,28.207297 2.8924046,16.812419 10.615724,0.2630388 28.532805,-3.9410845 42.276232,3.7858309"
         inkscape:connector-curvature="0"
         style="fill:#007fa3" />
      <path
         id="interrobang"
         d="m 41.987785,15.811714 c 2.435122,2.56467 3.192541,6.455226 2.770662,9.647031 -0.484669,3.638928 -2.721606,7.006872 -6.440024,9.238619 -2.949224,1.773009 -6.82462,2.477567 -10.637224,2.512408 -0.0314,0.596165 -0.151091,2.649837 -0.21192,2.975018 -0.0883,0.478093 -0.259014,0.737463 -0.46701,1.004576 -0.410105,0.528419 -1.120431,0.867149 -1.826832,1.066516 -0.559234,0.154848 -1.114544,0.224529 -1.508951,0.224529 -0.06475,0 -0.129507,-0.0058 -0.194261,-0.01161 -0.414029,-0.04646 -0.875152,-0.240015 -1.159675,-0.551646 -0.284523,-0.315503 -0.445425,-0.710366 -0.482707,-1.159425 l -0.0314,-0.406476 c -0.08045,-0.348408 -0.521952,-18.03205 -0.437576,-17.716547 0.06475,-2.119482 3.532006,-2.487246 5.41378,-2.113675 1.885699,0.373571 1.408878,2.634351 1.35786,5.411937 0,0 -0.09026,3.652478 -0.2649,7.512064 2.401764,-0.09097 4.309047,-0.766497 6.09271,-1.639453 3.604608,-1.765267 5.511891,-4.469301 5.511891,-8.45083 0,-3.981529 -3.928375,-8.441151 -11.178799,-8.441151 -7.250423,0 -10.362512,1.803979 -13.872934,4.668667 -0.790777,0.64649 -1.401029,1.296852 -1.975961,1.724619 -0.576894,0.427768 -2.109392,0.493578 -2.517535,-0.509062 -0.4964431,-1.207815 0.427765,-2.554992 0.971302,-3.20729 0.853568,-1.023932 2.955111,-3.085346 5.286235,-4.283483 2.670589,-1.374276 5.935732,-2.85501 10.482209,-2.96921 4.112824,-0.100651 10.60779,0.226465 15.285736,5.439036 M 26.26251,45.0896 c -0.378709,-0.29034 -0.80255,-0.489707 -1.232278,-0.572937 -0.145204,-0.02904 -0.296296,-0.04452 -0.443463,-0.04452 -0.808436,0 -1.603138,0.439381 -2.121165,1.176845 -0.43169,0.611649 -0.610252,1.345241 -0.496443,2.053671 0.07456,0.454866 0.245278,0.847793 0.500367,1.140069 0.284523,0.329052 0.720137,0.582615 1.261711,0.735528 0.311994,0.08517 0.631837,0.13162 0.95168,0.13162 h 0.002 c 0.698552,0 1.326464,-0.209044 1.815058,-0.596164 0.567083,-0.458738 0.875153,-1.107164 0.869266,-1.833014 -0.0078,-0.841986 -0.419916,-1.664616 -1.106695,-2.191099"
         inkscape:connector-curvature="0"
         style="fill:#ffffff" />
    </g>
  </g>
</svg>
