<?xml version="1.0" encoding="UTF-8" standalone="no"?>
<!-- Created with Inkscape (http://www.inkscape.org/) -->

<svg
   version="1.1"
   id="svg2"
   width="1512"
   height="416"
   viewBox="0 0 1512 416"
   xmlns="http://www.w3.org/2000/svg"
   xmlns:svg="http://www.w3.org/2000/svg">
  <defs
     id="defs6">
    <clipPath
       clipPathUnits="userSpaceOnUse"
       id="clipPath16">
      <path
         d="M 0,0 H 4536 V 1248 H 0 Z"
         clip-rule="evenodd"
         id="path14" />
    </clipPath>
    <clipPath
       clipPathUnits="userSpaceOnUse"
       id="clipPath22">
      <path
         d="M 0,0 H 4536 V 1248 H 0 Z"
         id="path20" />
    </clipPath>
  </defs>
  <g
     id="g8"
     transform="matrix(0.33333333,0,0,0.33333333,0,1.04e-5)">
    <g
       id="g10">
      <g
         id="g12"
         clip-path="url(#clipPath16)">
        <g
           id="g18" />
        <g
           id="g130">
          <g
             clip-path="url(#clipPath22)"
             id="g128">
            <g
               transform="matrix(4,0,0,4,962.46484,370.75513)"
               id="g26">
              <path
                 d="m 61.784447,0.19447173 c 5.04525,-0.57541506 10.154937,0.12889295 14.854927,2.04847777 3.968063,1.7078321 7.466583,4.3501382 10.182548,7.7105617 2.669915,3.3604228 4.621727,7.2364188 5.726509,11.3840128 1.173859,4.262673 1.72165,8.668053 1.629586,13.087239 -0.05984,4.502048 -0.851609,8.97187 -2.338486,13.220737 -1.404015,4.000282 -3.590584,7.682942 -6.435432,10.822407 -2.854058,3.125656 -6.320366,5.629856 -10.182557,7.356106 -4.239654,1.85054 -8.824569,2.766594 -13.446293,2.688339 -1.790695,0.02301 -3.572181,-0.193344 -5.303035,-0.639862 -1.380989,-0.359055 -2.729782,-0.833206 -4.032501,-1.413216 -0.980519,-0.428108 -1.905781,-0.975906 -2.752789,-1.624977 -0.515583,-0.40049 -1.012733,-0.82399 -1.486874,-1.270515 v 28.849014 h -4.943977 c -1.569729,0.0092 -3.134865,-0.128899 -4.672359,-0.423508 -1.367203,-0.26239 -2.651524,-0.847015 -3.747109,-1.698623 -1.127808,-0.906861 -1.984028,-2.10833 -2.476585,-3.466309 -0.616852,-1.79528 -0.906851,-3.687256 -0.847006,-5.588432 V 1.7503939 h 4.948568 c 2.186569,-0.050636 4.363934,0.2808032 6.440041,0.971301 1.873558,0.6904982 3.383446,2.1267338 4.17062,3.9634591 C 48.862926,5.2351084 50.777905,3.9553847 52.803364,2.8597941 55.57917,1.363715 58.635765,0.44765437 61.784447,0.17145514 Z M 46.934128,33.006939 c -0.437306,3.783928 -0.197941,7.613892 0.708927,11.31496 0.658256,2.55024 1.836712,4.934761 3.466297,7.006253 1.24289,1.574337 2.844853,2.831047 4.67236,3.668846 1.408622,0.644466 2.913894,1.049557 4.456028,1.201469 1.574333,0.07365 3.148655,-0.09207 4.67237,-0.487953 1.933388,-0.501759 3.724076,-1.445442 5.224755,-2.761993 1.942604,-1.740055 3.507751,-3.862183 4.598724,-6.228291 1.542107,-3.438675 2.430557,-7.139751 2.614693,-10.900665 0.423508,-3.825358 0.234772,-7.692143 -0.561615,-11.457663 -0.547783,-2.568649 -1.657189,-4.985393 -3.254547,-7.070698 -1.24289,-1.56513 -2.844849,-2.803423 -4.672371,-3.604399 -1.482262,-0.653672 -3.061188,-1.058765 -4.672363,-1.201468 -1.569737,-0.07365 -3.144074,0.06445 -4.672383,0.418903 -1.970218,0.469538 -3.788528,1.417822 -5.30302,2.761991 -1.97023,1.753866 -3.558361,3.899014 -4.672375,6.29274 -1.551315,3.484713 -2.435146,7.236422 -2.60548,11.047968"
                 style="fill:#303333;fill-opacity:1;fill-rule:evenodd;stroke:none"
                 id="path24" />
            </g>
            <g
               transform="matrix(4,0,0,4,1193.8809,374.67578)"
               id="g30">
              <path
                 d="m 77.403198,36.620537 c -3.682663,-0.676693 -7.420547,0.879238 -9.538063,3.963459 -2.407554,3.203911 -3.609009,8.861393 -3.609009,16.972439 V 91.36322 h -4.948577 c -1.569741,0.0092 -3.134854,-0.133484 -4.672375,-0.428108 -1.367192,-0.262383 -2.651509,-0.842407 -3.747097,-1.698631 -1.127808,-0.906845 -1.984028,-2.103707 -2.471974,-3.466294 -0.62146,-1.795295 -0.906864,-3.682655 -0.847019,-5.579231 v -54.75189 h 4.948567 c 2.412128,-0.05523 4.815071,0.35446 7.070713,1.201469 2.094513,0.92527 3.622799,2.794218 4.115352,5.026825 0.469548,-0.561601 1.081791,-1.247495 1.836727,-2.048475 0.81939,-0.865423 1.721634,-1.643387 2.68834,-2.338489 1.100196,-0.791771 2.287857,-1.454648 3.535354,-1.979428 1.44545,-0.59843 2.973725,-0.980509 4.529679,-1.132418 2.591652,-0.290006 5.206337,-0.243974 7.784195,0.142705 1.822921,0.294612 3.618217,0.71812 5.381271,1.275117 1.509911,0.557005 2.936935,1.321156 4.244263,2.264836 -0.156517,1.891968 -0.842385,3.705675 -1.984009,5.229377 -1.284325,1.496075 -2.946144,2.62389 -4.815071,3.259152 -3.084236,0.89304 -6.343384,0.989712 -9.473656,0.285397 l -0.02761,-0.0046 z m 75.669392,-2.402935 c 2.94612,3.144069 5.27078,6.812916 6.85894,10.817806 1.68019,4.253468 2.51799,8.792339 2.4766,13.368034 0.0322,4.506653 -0.73197,8.985688 -2.26487,13.22535 -1.42701,3.968056 -3.58139,7.636894 -6.35257,10.822403 -2.78504,3.144066 -6.20988,5.648269 -10.04443,7.351501 -4.14302,1.827523 -8.62663,2.748192 -13.1517,2.692948 -4.2765,0.03222 -8.50233,-0.888443 -12.37833,-2.692948 -3.81154,-1.781479 -7.24102,-4.281082 -10.11349,-7.351501 -2.94151,-3.148674 -5.27079,-6.81752 -6.85436,-10.822403 -1.67558,-4.207436 -2.513387,-8.700283 -2.47656,-13.22535 -0.04604,-4.557281 0.722717,-9.082344 2.26022,-13.368034 1.43162,-3.968067 3.58599,-7.636909 6.35717,-10.817806 5.94751,-6.495285 14.38538,-10.150324 23.19613,-10.039843 4.30411,-0.02762 8.5576,0.911459 12.44742,2.757389 3.7747,1.772278 7.18115,4.244261 10.03983,7.287054 z m -24.33316,45.968754 c 1.48223,0.07366 2.96914,-0.09207 4.40077,-0.487954 1.87814,-0.524772 3.5998,-1.49607 5.01761,-2.826423 1.88737,-1.795311 3.37883,-3.958863 4.38697,-6.357193 1.45005,-3.49392 2.32927,-7.194988 2.61469,-10.965115 0.42811,-3.756306 0.21635,-7.558647 -0.63527,-11.241306 -0.59381,-2.53643 -1.69864,-4.920952 -3.25456,-7.010857 -1.17382,-1.54211 -2.70212,-2.775802 -4.456,-3.604397 -1.33957,-0.635261 -2.77121,-1.040355 -4.24426,-1.201465 -1.50067,-0.06905 -3.00596,0.09206 -4.45602,0.487949 -1.87353,0.492554 -3.59979,1.440838 -5.0222,2.757393 -1.86435,1.786083 -3.35581,3.926628 -4.38237,6.292736 -1.49146,3.475506 -2.3523,7.190388 -2.55022,10.965103 -0.51559,3.747105 -0.34986,7.554047 0.48795,11.245919 0.60764,2.550231 1.71243,4.953178 3.25454,7.070694 1.17845,1.583549 2.73437,2.844856 4.52967,3.668861 1.36256,0.630646 2.82183,1.035728 4.3133,1.201462 l -0.005,0.0046 z m 74.67965,0.975914 c 3.44788,0.03683 6.88658,-0.271592 10.27004,-0.92067 2.44433,-0.538589 4.92553,-0.865425 7.42514,-0.971298 1.68941,-0.161118 3.36041,0.464935 4.52507,1.694023 1.28892,2.14975 1.8367,4.658554 1.5605,7.144356 -2.26022,0.911453 -4.57567,1.666397 -6.93257,2.264824 -5.73577,1.440849 -11.62799,2.154358 -17.53868,2.122139 -3.96344,0 -7.89928,-0.621453 -11.66942,-1.836731 -3.7793,-1.20147 -7.25022,-3.203904 -10.18714,-5.86924 -3.14408,-2.941506 -5.60682,-6.536705 -7.2134,-10.536987 -1.96561,-5.040642 -2.90471,-10.426529 -2.75737,-15.840031 -0.14274,-5.431919 0.79634,-10.84082 2.75737,-15.909077 1.59277,-4.027904 4.05554,-7.650715 7.2134,-10.610651 2.93692,-2.665325 6.40784,-4.663168 10.18714,-5.864631 3.77014,-1.219882 7.70598,-1.836728 11.66942,-1.836728 3.29139,-0.02302 6.57815,0.211752 9.82809,0.704308 2.97379,0.474142 5.54242,0.994318 7.71059,1.555923 2.54565,0.662878 4.8565,1.371788 6.93257,2.122134 0.28084,2.531826 -0.26239,5.09127 -1.5605,7.282451 -1.16466,1.233692 -2.83566,1.859745 -4.52507,1.698628 -2.49961,-0.110482 -4.98081,-0.432713 -7.42514,-0.971306 -3.38346,-0.653671 -6.82216,-0.96209 -10.27004,-0.920658 -4.32713,-0.09667 -8.43789,1.910377 -11.02952,5.376674 -2.83109,3.590592 -4.24428,9.38617 -4.24428,17.400551 0.005,8.009785 1.39479,13.809971 4.1752,17.395947 2.59627,3.493919 6.73926,5.500976 11.09399,5.376678 l 0.005,-0.05063 z M 272.3078,25.439066 c 0.009,1.569735 -0.13351,3.134867 -0.42813,4.672377 -0.25321,1.344167 -0.8378,2.60548 -1.69403,3.668846 -0.92523,1.090988 -2.12213,1.919582 -3.46631,2.402931 -1.79526,0.616844 -3.68723,0.906856 -5.58838,0.847011 h -6.64723 v 54.337597 h -4.95319 c -1.56512,0.01841 -3.13025,-0.11969 -4.67235,-0.414291 -1.36257,-0.25779 -2.64689,-0.842415 -3.7471,-1.698639 -1.12321,-0.906845 -1.97944,-2.103706 -2.472,-3.466286 -0.62144,-1.795311 -0.91145,-3.687271 -0.85159,-5.583839 V 0.27271569 h 4.95317 c 1.56514,-0.01381 3.13024,0.12889299 4.66774,0.42350536 1.3672,0.26238937 2.65154,0.84240775 3.74713,1.69402175 1.1278,0.9114578 1.98404,2.1083214 2.4766,3.4663003 0.61682,1.7952957 0.90684,3.6872601 0.84701,5.5884309 v 13.994092 z m 59.97208,8.760122 c 2.94153,3.14407 5.27078,6.812912 6.85891,10.817803 1.6756,4.253475 2.51798,8.792343 2.47202,13.363437 0.0368,4.511254 -0.732,8.990292 -2.26486,13.229946 -1.42704,3.968064 -3.58139,7.63691 -6.35257,10.817803 -2.78043,3.144073 -6.20526,5.652885 -10.04447,7.356102 -4.13839,1.827522 -8.62658,2.748184 -13.1517,2.688347 -4.27646,0.03683 -8.50229,-0.883843 -12.37833,-2.688347 -3.81152,-1.78608 -7.24099,-4.281082 -10.11352,-7.356102 -2.94611,-3.144058 -5.27072,-6.812912 -6.85889,-10.817803 -1.67099,-4.207435 -2.50882,-8.700279 -2.47659,-13.229946 -0.0414,-4.552681 0.72736,-9.077739 2.26486,-13.363437 1.427,-3.96806 3.58597,-7.636906 6.35712,-10.817803 5.95212,-6.495287 14.39004,-10.145717 23.20077,-10.03524 4.30408,-0.02762 8.55756,0.916061 12.44275,2.757389 3.77936,1.776886 7.18579,4.248871 10.0445,7.28706 v -0.0092 z m -24.33322,45.959549 c 1.47769,0.07825 2.96456,-0.08286 4.39624,-0.469536 1.87811,-0.520179 3.59979,-1.49147 5.02218,-2.826439 1.88278,-1.795295 3.37424,-3.958862 4.38239,-6.357185 1.45004,-3.489319 2.33386,-7.190388 2.61929,-10.96051 0.42349,-3.76091 0.20712,-7.563248 -0.63986,-11.245907 -0.59384,-2.53643 -1.70325,-4.920952 -3.25455,-7.006256 -1.17386,-1.537506 -2.70215,-2.766594 -4.45141,-3.590588 -1.33957,-0.635257 -2.77118,-1.040352 -4.24427,-1.201469 -1.5007,-0.06905 -3.00134,0.09667 -4.45144,0.487953 -1.87357,0.492558 -3.59977,1.440838 -5.02219,2.757393 -1.86435,1.781479 -3.35587,3.917423 -4.38699,6.278927 -1.48685,3.475506 -2.34766,7.190384 -2.54563,10.965107 -0.51556,3.747097 -0.34982,7.558647 0.49256,11.245918 0.60305,2.550232 1.70782,4.953163 3.24994,7.070702 1.17382,1.583541 2.73443,2.849449 4.52505,3.668838 1.36722,0.630654 2.82187,1.035744 4.3179,1.20147 l -0.009,-0.01842 z m 74.80859,-43.561218 c -3.68262,-0.676689 -7.42053,0.87463 -9.53806,3.963459 -2.40753,3.203911 -3.60897,8.861397 -3.60437,16.972443 v 33.81599 h -4.95779 c -1.55597,0.01842 -3.11191,-0.119675 -4.64481,-0.409691 -1.36712,-0.262398 -2.65149,-0.842407 -3.74704,-1.698624 -1.12783,-0.90686 -1.97943,-2.108322 -2.47198,-3.4663 -0.63071,-1.795304 -0.92526,-3.691864 -0.87003,-5.593033 V 25.439066 h 4.94855 c 2.41675,-0.05523 4.81503,0.35446 7.07532,1.201469 2.0899,0.92527 3.61816,2.794218 4.11078,5.026825 0.46948,-0.561601 1.08175,-1.247495 1.8367,-2.048475 0.82397,-0.865423 1.72625,-1.643387 2.69293,-2.338489 1.10022,-0.791771 2.2832,-1.454648 3.53534,-1.979428 1.44543,-0.59843 2.96911,-0.980509 4.52505,-1.132418 2.59168,-0.290006 5.21097,-0.243974 7.78888,0.142705 1.81827,0.294612 3.6182,0.71812 5.37665,1.275117 1.50983,0.557005 2.93692,1.321156 4.24426,2.264836 -0.15652,1.891968 -0.84243,3.705675 -1.97943,5.229377 -1.28433,1.496075 -2.9461,2.619286 -4.80588,3.254544 -3.08877,0.893047 -6.34796,0.989719 -9.47821,0.280803 l -0.0369,-0.01841 z"
                 style="fill:#303333;fill-opacity:1;fill-rule:evenodd;stroke:none"
                 id="path28" />
            </g>
            <g
               transform="matrix(4,0,0,4,2344.7305,374.6792)"
               id="g34">
              <path
                 d="m 161.92538,25.443291 c 0.0138,1.56513 -0.12893,3.130262 -0.42358,4.672374 -0.25313,1.339566 -0.83777,2.600876 -1.69858,3.664246 -0.92531,1.090984 -2.11758,1.919579 -3.46631,2.402931 -1.79533,0.621449 -3.68727,0.906857 -5.58383,0.851616 h -6.64265 v 54.32378 h -4.95308 c -1.56522,0.01382 -3.13033,-0.128891 -4.67238,-0.423507 -1.36726,-0.262391 -2.65157,-0.842408 -3.74718,-1.698632 -1.1232,-0.906845 -1.97943,-2.108307 -2.47194,-3.466293 -0.62147,-1.795296 -0.90686,-3.691864 -0.85164,-5.588425 V 0.27233759 h 4.95319 c 1.5651,-0.009207 3.13022,0.12889298 4.67238,0.42350533 1.36716,0.26238936 2.6515,0.84240788 3.75169,1.69862538 1.11862,0.9114578 1.97022,2.1129241 2.45819,3.4755073 0.61686,1.7952952 0.90689,3.6872592 0.84703,5.5884304 v 13.998696 l 17.82869,-0.01381 z m 38.33179,11.172264 c -3.68265,-0.676686 -7.42055,0.87463 -9.53808,3.963459 -2.40755,3.208515 -3.60903,8.870594 -3.60903,16.98164 v 33.802185 h -4.95318 c -1.56511,0.01842 -3.13022,-0.119683 -4.67232,-0.409691 -1.36258,-0.262398 -2.65151,-0.842415 -3.74713,-1.698631 -1.12319,-0.906845 -1.97939,-2.108323 -2.47199,-3.466294 -0.62143,-1.795303 -0.90683,-3.687263 -0.84697,-5.588432 v -54.7565 h 4.94856 c 2.41219,-0.05984 4.81504,0.349855 7.0707,1.201467 2.08533,0.929875 3.59978,2.798823 4.08775,5.026829 0.46956,-0.566208 1.08177,-1.247499 1.8367,-2.053082 0.81938,-0.86082 1.72165,-1.643384 2.68837,-2.333887 1.10019,-0.791769 2.28784,-1.454647 3.53539,-1.979425 1.44539,-0.603035 2.96905,-0.980507 4.52496,-1.132416 2.58713,-0.294613 5.20178,-0.243978 7.77506,0.1427 1.82292,0.290013 3.62283,0.718121 5.38125,1.270518 1.50989,0.561607 2.93691,1.321155 4.24431,2.264833 -0.15657,1.896574 -0.84244,3.710278 -1.97943,5.23398 -1.28441,1.48687 -2.93695,2.610081 -4.79208,3.249943 -3.08422,0.893044 -6.34342,0.989716 -9.47362,0.285408 l -0.009,-0.0046 z m 51.04628,-12.456591 c 2.44429,0 5.27538,0.119688 8.49309,0.354458 3.19009,0.230165 6.28815,1.201468 9.0455,2.826439 3.11185,1.961018 5.61145,4.759836 7.21347,8.069624 2.24182,5.040634 3.25907,10.546203 2.96906,16.056377 v 39.878567 h -4.94855 c -2.26944,0.05064 -4.52512,-0.331436 -6.64719,-1.127815 -1.93795,-0.80558 -3.42947,-2.402939 -4.10153,-4.386963 -1.56515,1.661796 -3.38345,3.070412 -5.38132,4.175201 -3.09341,1.624985 -6.54135,2.476593 -10.03982,2.471993 -3.42946,0.101272 -6.85896,-0.280808 -10.1826,-1.127815 -3.16245,-0.787171 -6.14084,-2.177376 -8.76928,-4.101548 -2.53643,-1.878174 -4.59416,-4.322525 -6.00732,-7.144363 -1.5283,-3.194702 -2.23262,-6.720848 -2.05308,-10.256195 -0.33605,-7.535645 4.36849,-14.380772 11.53128,-16.760693 7.4942,-2.877071 17.84248,-3.277561 31.04481,-1.206066 0.4834,-2.679134 0.38669,-5.427318 -0.28076,-8.065018 -0.63992,-2.191181 -1.89206,-4.156799 -3.6091,-5.657482 -2.57318,-1.933395 -5.77251,-2.840248 -8.981,-2.550243 -3.48476,-0.04143 -6.96943,0.266998 -10.39437,0.920669 -2.43971,0.53859 -4.92549,0.865422 -7.42511,0.971302 -1.6894,0.161114 -3.35582,-0.464935 -4.52507,-1.694026 -1.29352,-2.195778 -1.84135,-4.750622 -1.55591,-7.282452 2.07605,-0.754944 4.38694,-1.463856 6.928,-2.122131 2.16817,-0.570813 4.76445,-1.086384 7.78422,-1.560524 3.27752,-0.474144 6.58736,-0.699707 9.89711,-0.66288 l -0.005,-0.01842 z m -3.11189,55.8659 c 1.95642,0.0046 3.90822,-0.257789 5.8002,-0.777962 1.86435,-0.510978 3.58594,-1.45465 5.02216,-2.757392 1.56973,-1.500679 2.73901,-3.374222 3.39264,-5.450325 0.87008,-2.863266 1.22918,-5.855423 1.05883,-8.838379 -1.44088,-0.40049 -2.90475,-0.727326 -4.38241,-0.975907 -1.32111,-0.188736 -2.9231,-0.377472 -4.81047,-0.561607 -2.02086,-0.193333 -4.05088,-0.243973 -6.08095,-0.142704 -1.358,0.09667 -2.70674,0.313034 -4.03247,0.635265 -1.36264,0.331436 -2.65621,0.906857 -3.81626,1.69862 -1.17378,0.796375 -2.16352,1.832127 -2.89999,3.042797 -0.80565,1.417824 -1.20148,3.038193 -1.13246,4.672371 -0.0598,1.60656 0.25316,3.203911 0.91609,4.667763 0.57077,1.183052 1.44997,2.181984 2.54562,2.900101 1.16466,0.741127 2.4628,1.24749 3.82074,1.49147 1.51445,0.2854 3.05199,0.423508 4.59414,0.418899 l 0.005,-0.02301 z m 73.27563,1.127808 c 3.43872,0.03683 6.87735,-0.271591 10.25626,-0.920662 2.43973,-0.53859 4.92551,-0.865418 7.42514,-0.971306 1.68939,-0.16111 3.36035,0.464935 4.52506,1.694031 1.28894,2.149757 1.83209,4.658562 1.56051,7.144348 -2.26028,0.911453 -4.57571,1.666397 -6.93268,2.264839 -5.73562,1.440842 -11.62787,2.154358 -17.53857,2.122139 -3.96344,0 -7.89926,-0.621452 -11.6694,-1.836738 -3.77939,-1.20147 -7.25028,-3.203911 -10.18253,-5.869233 -3.14871,-2.94152 -5.61145,-6.53672 -7.21808,-10.537002 -1.96554,-5.040634 -2.90466,-10.426518 -2.75738,-15.840027 -0.14267,-5.431908 0.79638,-10.840813 2.75738,-15.909065 1.59281,-4.027905 4.05557,-7.650719 7.21808,-10.610655 2.93225,-2.665323 6.40314,-4.663166 10.18253,-5.864636 3.77014,-1.219879 7.70596,-1.836723 11.6694,-1.836723 3.28677,-0.02302 6.57355,0.211754 9.82809,0.70431 2.96912,0.474142 5.54239,0.989715 7.71048,1.555919 2.54572,0.662878 4.85654,1.371792 6.93268,2.122135 0.28076,2.531826 -0.26697,5.08667 -1.56051,7.282456 -1.16471,1.233684 -2.83567,1.859737 -4.52506,1.698623 -2.49963,-0.110481 -4.98541,-0.432712 -7.42514,-0.971298 -3.37891,-0.653675 -6.81754,-0.962101 -10.25626,-0.920669 -4.33169,-0.09667 -8.4425,1.910377 -11.03412,5.376682 -2.83108,3.590588 -4.24429,9.386169 -4.23965,17.400547 0,8.009773 1.3902,13.805359 4.17056,17.395943 2.59635,3.493927 6.73929,5.500969 11.094,5.376678 l 0.009,-0.05064 z m 65.068,-29.120598 c 3.95883,4.336327 7.87161,8.575981 11.73382,12.73278 1.69397,1.790688 3.41565,3.655045 5.16034,5.588433 1.74924,1.933395 3.52155,3.866791 5.32141,5.804786 1.79068,1.933396 3.53537,3.820755 5.23398,5.657486 1.69864,1.836724 3.25458,3.512329 4.67236,5.022217 -0.58926,1.353378 -1.60653,2.471985 -2.90008,3.176293 -2.13132,1.044952 -4.49744,1.509887 -6.86353,1.34877 -1.8782,0 -3.74255,-0.409691 -5.45037,-1.20147 -1.8321,-0.860824 -3.54453,-1.951805 -5.09125,-3.254539 -1.69403,-1.413231 -3.27756,-2.950737 -4.73682,-4.598717 -1.50992,-1.698624 -2.96918,-3.443291 -4.38232,-5.233978 -0.8516,-1.132424 -1.96106,-2.476586 -3.32361,-4.032509 -1.36261,-1.555931 -2.8035,-3.231529 -4.31796,-5.022217 -1.50989,-1.790695 -3.06577,-3.585991 -4.67237,-5.376682 -1.60196,-1.7953 -3.06115,-3.493923 -4.38229,-5.091271 v 33.811383 h -4.94867 c -1.56967,0.0092 -3.13483,-0.133492 -4.67236,-0.428108 -1.36719,-0.262391 -2.65146,-0.842408 -3.7471,-1.698632 -1.12775,-0.906845 -1.98401,-2.103706 -2.47657,-3.466293 -0.61685,-1.795296 -0.90686,-3.687256 -0.84701,-5.583832 V 0.27233759 h 4.94854 c 1.56977,-0.009207 3.13028,0.12889298 4.6724,0.42350533 1.36719,0.26238936 2.65152,0.84240788 3.75171,1.69862538 1.12326,0.9068546 1.97949,2.1037178 2.47198,3.4663 0.62143,1.7952957 0.90689,3.6872597 0.8516,5.5838267 v 34.520302 c 1.59738,-1.41782 3.39267,-2.973743 5.37667,-4.672371 1.98404,-1.698623 3.91742,-3.346611 5.79563,-4.94857 1.88736,-1.601955 3.58603,-3.065811 5.09128,-4.386959 l 3.39718,-2.969145 c 2.87253,-2.826441 6.35724,-4.957779 10.18259,-6.228294 2.61471,-0.787169 5.34442,-1.118607 8.06964,-0.975905 2.55478,0.253182 5.01761,1.077177 7.21341,2.407536 z"
                 style="fill:#1f73db;fill-opacity:1;fill-rule:evenodd;stroke:none"
                 id="path32" />
            </g>
            <g
               transform="matrix(4,0,0,4,19448.359,3840.7441)"
               id="g38">
              <path
                 d="m -4671.0903,-795.18524 c -6.4107,0 -12.4375,-2.4964 -16.9702,-7.02936 -4.5333,-4.5332 -7.0298,-10.56006 -7.0298,-16.97052 0,-6.4104 2.4965,-12.43732 7.0298,-16.97052 4.5327,-4.5329 10.5595,-7.0293 16.9702,-7.0293 6.4111,0 12.438,2.4964 16.9707,7.0293 4.5337,4.53308 7.0302,10.56 7.0302,16.97052 0,6.41052 -2.4965,12.43744 -7.0302,16.97052 -4.5327,4.53296 -10.5596,7.02936 -16.9707,7.02936 z m 0.4008,-36.58417 c -3.3193,1.2e-4 -6.4189,1.31329 -8.728,3.69757 v 0.005 c -4.8598,5.01294 -4.8598,12.86578 0,17.87854 0.065,0.072 0.1338,0.14001 0.2066,0.21204 l 0.01,0.008 c 0.027,0.0263 0.054,0.0528 0.081,0.0797 2.2753,2.19671 5.2695,3.40649 8.4311,3.40649 3.3198,6e-5 6.4185,-1.31433 8.7251,-3.70105 v -0.005 c 4.8477,-5.01355 4.8477,-12.86645 0,-17.87848 -0.081,-0.0859 -0.1748,-0.18115 -0.2886,-0.29114 -2.2744,-2.19976 -5.2695,-3.41119 -8.4341,-3.41113 z"
                 style="fill:#ffffff;fill-opacity:1;fill-rule:nonzero;stroke:none"
                 id="path36" />
            </g>
            <g
               transform="matrix(4,0,0,4,508.36133,375.44385)"
               id="g42">
              <path
                 d="M 122.84582,41.151848 75.399391,8.5741501 h 0.0092 L 63.536633,0.32500002 54.072201,6.6821847 c -0.05524,0.032225 -0.115086,0.050637 -0.165718,0.087464 L 3.849978,41.147243 c -5.1833391,3.56297 -5.1280992,9.307915 0.1334963,12.765004 l 50.0426907,32.932174 0.09207,0.04602 9.469032,6.228294 11.324173,-7.471191 h -0.03223 l 47.86533,-31.707676 c 5.23398,-3.470898 5.28921,-9.225052 0.10128,-12.788021 M 64.305389,70.797241 c -6.140834,-0.0046 -12.014667,-2.499603 -16.286552,-6.909599 -4.345535,-4.465214 -6.76688,-10.45874 -6.743866,-16.687031 -0.0092,-0.391285 -0.0092,-0.782562 0,-1.169243 0.322235,-12.723579 10.896065,-22.772625 23.615036,-22.450393 12.723587,0.322235 22.777237,10.896053 22.455002,23.619636 0.151909,12.875485 -10.164131,23.440113 -23.03962,23.59663 z"
                 style="fill:#1f73db;fill-opacity:1;fill-rule:evenodd;stroke:none"
                 id="path40" />
            </g>
            <g
               transform="matrix(4,0,0,4,671.05469,482.6228)"
               id="g46">
              <path
                 d="M 32.070091,11.172486 C 27.25502,6.5139289 19.572077,6.6428223 14.908915,11.457896 v 0.0046 c -4.828888,4.980798 -4.828888,12.898504 0,17.879303 0.09206,0.10127 0.193338,0.197935 0.294606,0.299211 4.819686,4.653958 12.498023,4.52507 17.156575,-0.294613 v -0.0046 c 4.819683,-4.985398 4.819683,-12.893906 0,-17.879303 -0.09206,-0.09667 -0.188728,-0.193339 -0.290005,-0.29001"
                 style="fill:#1f73db;fill-opacity:1;fill-rule:evenodd;stroke:none"
                 id="path44" />
            </g>
            <g
               transform="matrix(4,0,0,4,2182.4688,712.35938)"
               id="g50">
              <path
                 d="m 130.78845,26.651016 h -5.40893 v 16.157662 h -3.84378 V 26.651016 h -5.38584 v -2.950722 h 14.62927 l 0.009,2.950722 z"
                 style="fill:#303333;fill-opacity:1;fill-rule:nonzero;stroke:none"
                 id="path48" />
            </g>
            <g
               transform="matrix(4,0,0,4,2236.1016,712.32251)"
               id="g54">
              <path
                 d="m 123.70557,35.183731 v 7.646103 h -3.83458 V 23.712248 h 7.1996 c 1.8275,-0.110478 3.63662,0.418905 5.11888,1.486872 1.23834,1.017341 1.92419,2.559454 1.84134,4.156807 0.023,0.911443 -0.2486,1.804491 -0.77796,2.550231 -0.5892,0.764153 -1.37642,1.357972 -2.27404,1.717041 0.9897,0.239373 1.85977,0.833203 2.43978,1.670998 0.51555,0.870037 0.77337,1.873558 0.74109,2.886284 v 1.408615 c 0.009,0.561604 0.0829,1.123219 0.23017,1.666401 0.0967,0.50177 0.35446,0.957485 0.74115,1.293541 v 0.276207 h -3.95424 c -0.39131,-0.368271 -0.63527,-0.865437 -0.68129,-1.404015 -0.10129,-0.616851 -0.15656,-1.242904 -0.16114,-1.868957 v -1.348774 c 0.0507,-0.819393 -0.23017,-1.620377 -0.77796,-2.228012 -0.58921,-0.556992 -1.38558,-0.8424 -2.19576,-0.791756 z m 0,-2.950737 h 3.30973 c 0.85624,0.06444 1.71248,-0.174927 2.40757,-0.681286 0.55703,-0.520181 0.8516,-1.265924 0.79643,-2.025459 0.0368,-0.777962 -0.25322,-1.532904 -0.79643,-2.085308 -0.64444,-0.557009 -1.4869,-0.837801 -2.33386,-0.77797 h -3.37423 l -0.009,5.570023 z"
                 style="fill:#303333;fill-opacity:1;fill-rule:nonzero;stroke:none"
                 id="path52" />
            </g>
            <g
               transform="matrix(4,0,0,4,2292.166,712.35254)"
               id="g58">
              <path
                 d="m 139.10942,23.704597 v 12.682145 c 0.11046,1.896568 -0.68134,3.733303 -2.12674,4.962387 -1.59274,1.224476 -3.563,1.845924 -5.57004,1.749252 -1.99328,0.09667 -3.95423,-0.524776 -5.53319,-1.749252 -1.44086,-1.233692 -2.21881,-3.070416 -2.10831,-4.962387 V 23.699997 h 3.84837 v 12.686745 c -0.0829,1.040348 0.28539,2.071499 1.01275,2.826439 0.76874,0.658283 1.76764,0.994319 2.78038,0.934474 1.02655,0.05985 2.03466,-0.271583 2.82645,-0.929866 0.7319,-0.754944 1.10478,-1.78608 1.02193,-2.835644 V 23.709196 Z"
                 style="fill:#303333;fill-opacity:1;fill-rule:nonzero;stroke:none"
                 id="path56" />
            </g>
            <g
               transform="matrix(4,0,0,4,2349.9199,711.49438)"
               id="g62">
              <path
                 d="m 138.69257,38.047161 c 0.0229,-0.681286 -0.26708,-1.334965 -0.78264,-1.77227 -0.82392,-0.59383 -1.75385,-1.021931 -2.73891,-1.261314 -1.84592,-0.455727 -3.59517,-1.247498 -5.16034,-2.333886 -1.15079,-0.874635 -1.79991,-2.255628 -1.75384,-3.701074 -0.0138,-1.532904 0.74115,-2.973742 2.01165,-3.839167 1.49146,-1.04495 3.28672,-1.569729 5.1097,-1.491472 1.85513,-0.08286 3.67799,0.51557 5.13266,1.675608 1.26591,0.989715 1.97481,2.527227 1.91499,4.129173 l -0.023,0.07826 h -3.71948 c 0.0322,-0.81018 -0.29002,-1.592748 -0.88382,-2.145141 -0.69513,-0.580027 -1.58817,-0.874634 -2.49042,-0.819401 -0.84701,-0.05523 -1.68941,0.188744 -2.37069,0.681297 -0.55246,0.418904 -0.86544,1.067967 -0.84702,1.753865 0,0.64907 0.34068,1.25671 0.89761,1.592748 0.98053,0.580027 2.02088,1.026543 3.11643,1.32115 1.74933,0.405102 3.38807,1.201473 4.7921,2.324684 1.08175,0.957485 1.68017,2.347695 1.62501,3.793137 0.0505,1.532905 -0.67671,2.982956 -1.92885,3.862194 -1.50523,1.008117 -3.30052,1.505276 -5.11433,1.417808 -1.93794,0.04144 -3.84372,-0.520168 -5.45026,-1.606544 -1.50073,-0.99432 -2.36613,-2.715962 -2.25105,-4.515869 l 0.0184,-0.07364 h 3.7287 c -0.0783,0.952877 0.31297,1.887352 1.04497,2.499603 0.86081,0.580009 1.88731,0.856216 2.91847,0.796371 0.85166,0.05522 1.69405,-0.170337 2.38913,-0.64907 0.534,-0.405098 0.83775,-1.044956 0.81481,-1.717049"
                 style="fill:#303333;fill-opacity:1;fill-rule:nonzero;stroke:none"
                 id="path60" />
            </g>
            <g
               transform="matrix(4,0,0,4,2401.8887,712.35938)"
               id="g66">
              <path
                 d="m 145.99347,26.651016 h -5.40894 v 16.157662 h -3.83456 V 26.651016 h -5.37668 v -2.950722 h 14.6294 l -0.009,2.950722 z"
                 style="fill:#303333;fill-opacity:1;fill-rule:nonzero;stroke:none"
                 id="path64" />
            </g>
            <g
               transform="matrix(4,0,0,4,2455.4766,712.37256)"
               id="g70">
              <path
                 d="m 146.83865,34.413116 h -7.91771 v 5.450337 h 9.25719 v 2.95533 H 135.091 V 23.701185 h 13.06418 v 2.946133 h -9.22967 v 4.805864 h 7.91772 l -0.005,2.959934 z"
                 style="fill:#303333;fill-opacity:1;fill-rule:nonzero;stroke:none"
                 id="path68" />
            </g>
            <g
               transform="matrix(4,0,0,4,2504.9063,712.35254)"
               id="g74">
              <path
                 d="M 138.521,42.82222 V 23.704628 h 6.56437 c 2.14974,-0.07365 4.23963,0.73193 5.77715,2.237213 1.52373,1.514498 2.34775,3.595202 2.27403,5.744942 v 3.162483 c 0.0782,2.149754 -0.74573,4.235058 -2.26941,5.744953 -1.54674,1.496079 -3.63203,2.301666 -5.77719,2.228001 z m 3.83458,-16.157656 v 13.211542 h 2.53184 c 1.23364,0.05983 2.42592,-0.455745 3.22688,-1.394817 0.81479,-1.031147 1.22913,-2.320072 1.16927,-3.632023 v -3.1947 c 0.0553,-1.302738 -0.35901,-2.582466 -1.16927,-3.604401 -0.80096,-0.939079 -1.99324,-1.454647 -3.22688,-1.394813 l -2.53184,0.0092 z"
                 style="fill:#303333;fill-opacity:1;fill-rule:nonzero;stroke:none"
                 id="path72" />
            </g>
            <g
               transform="matrix(4,0,0,4,2583.2402,712.37256)"
               id="g78">
              <path
                 d="m 155.7077,34.413116 h -7.91775 v 5.450337 h 9.2572 v 2.95533 H 143.95538 V 23.701185 h 13.0596 v 2.946133 h -9.22503 v 4.805864 h 7.91775 z"
                 style="fill:#303333;fill-opacity:1;fill-rule:nonzero;stroke:none"
                 id="path76" />
            </g>
            <g
               transform="matrix(4,0,0,4,2628.3301,712.36255)"
               id="g82">
              <path
                 d="m 155.21327,30.476782 3.58598,-6.776091 h 4.4652 l -5.6759,9.478234 6.00273,9.639354 h -4.63558 l -3.69642,-6.891174 -3.70105,6.891174 h -4.47443 l 5.81857,-9.639354 -5.67585,-9.478234 h 4.43757 z"
                 style="fill:#303333;fill-opacity:1;fill-rule:nonzero;stroke:none"
                 id="path80" />
            </g>
            <g
               transform="matrix(4,0,0,4,2682.2637,712.36938)"
               id="g86">
              <path
                 d="m 162.71179,38.694023 h -6.71165 l -1.30272,4.124565 H 150.826 l 6.58272,-19.117594 h 3.92665 l 6.55051,19.117594 h -3.87593 z m -5.76797,-3.005977 h 4.81968 l -2.36613,-7.508017 h -0.0782 l -2.37532,7.508017 z"
                 style="fill:#303333;fill-opacity:1;fill-rule:nonzero;stroke:none"
                 id="path84" />
            </g>
            <g
               transform="matrix(4,0,0,4,2742.3613,712.36914)"
               id="g90">
              <path
                 d="m 159.99493,23.701086 4.86568,14.090769 h 0.0782 l 4.91174,-14.090769 h 5.01763 v 19.117598 h -3.82999 v -5.698903 l 0.36825,-8.442506 -0.0782,-0.01381 -5.11888,14.155217 h -2.57332 l -5.0958,-14.099976 -0.0783,0.0092 0.3683,8.396464 v 5.698906 h -3.83461 V 23.705693 l 4.99925,-0.0046 z"
                 style="fill:#303333;fill-opacity:1;fill-rule:nonzero;stroke:none"
                 id="path88" />
            </g>
            <g
               transform="matrix(4,0,0,4,3486.75,807.17383)"
               id="g94">
              <path
                 d="M 0,0 H 3.827683 V 19.11759 H 0 Z"
                 style="fill:#303333;fill-opacity:1;fill-rule:nonzero;stroke:none"
                 id="path92" />
            </g>
            <g
               transform="matrix(4,0,0,4,2864.7813,712.32593)"
               id="g98">
              <path
                 d="m 178.9426,42.829498 h -3.82077 l -7.71979,-13.06422 -0.0782,0.0092 v 13.055021 h -3.83461 V 23.711904 h 3.83461 l 7.71978,13.041206 0.0782,-0.01381 V 23.698093 h 3.82077 v 19.131401 z"
                 style="fill:#303333;fill-opacity:1;fill-rule:nonzero;stroke:none"
                 id="path96" />
            </g>
            <g
               transform="matrix(4,0,0,4,2921.0527,712.35938)"
               id="g102">
              <path
                 d="m 182.01813,26.651016 h -5.40894 v 16.157662 h -3.83458 V 26.651016 h -5.38125 v -2.950722 h 14.62477 z"
                 style="fill:#303333;fill-opacity:1;fill-rule:nonzero;stroke:none"
                 id="path100" />
            </g>
            <g
               transform="matrix(4,0,0,4,2974.6465,712.37256)"
               id="g106">
              <path
                 d="m 182.86382,34.413116 h -7.91774 v 5.450337 h 9.2572 v 2.95533 H 171.11145 V 23.701185 h 13.06424 v 2.946133 h -9.22961 v 4.805864 h 7.91774 z"
                 style="fill:#303333;fill-opacity:1;fill-rule:nonzero;stroke:none"
                 id="path104" />
            </g>
            <g
               transform="matrix(4,0,0,4,3022.5625,711.47412)"
               id="g110">
              <path
                 d="m 189.60945,40.431606 c -0.71808,0.865418 -1.62495,1.55592 -2.65608,2.007046 -1.43625,0.635265 -2.99678,0.934475 -4.56653,0.883846 -2.12215,0.07824 -4.18896,-0.708919 -5.72191,-2.181991 -1.50067,-1.491467 -2.30618,-3.544552 -2.22339,-5.657467 v -3.995695 c -0.0783,-2.089911 0.69509,-4.129175 2.14052,-5.643666 1.44551,-1.468463 3.43874,-2.260225 5.49632,-2.18658 1.93349,-0.133492 3.84848,0.478748 5.34913,1.703232 1.25212,1.146219 1.94256,2.780407 1.90119,4.474432 l -0.0276,0.07826 h -3.61358 c -0.0184,-0.893043 -0.3637,-1.749277 -0.97131,-2.407541 -0.68587,-0.630665 -1.60196,-0.952891 -2.53184,-0.888445 -1.10935,-0.03223 -2.16353,0.478741 -2.83561,1.362595 -0.75042,1.008113 -1.13241,2.246412 -1.07725,3.503122 v 4.014093 c -0.0552,1.270512 0.33604,2.522618 1.11862,3.535343 0.72736,0.902256 1.84592,1.404026 3.00597,1.362576 0.72731,0.01843 1.45466,-0.07364 2.15434,-0.276192 0.45576,-0.133484 0.87466,-0.368255 1.23373,-0.681289 v -3.535359 h -3.39265 v -2.679119 h 7.22261 l -0.005,7.208801 z"
                 style="fill:#303333;fill-opacity:1;fill-rule:nonzero;stroke:none"
                 id="path108" />
            </g>
            <g
               transform="matrix(4,0,0,4,3081.4707,712.32251)"
               id="g114">
              <path
                 d="m 182.35757,35.183731 v 7.646103 h -3.83456 V 23.712248 h 7.20421 c 1.82751,-0.110478 3.63199,0.418905 5.11886,1.486872 1.23829,1.017341 1.92421,2.559454 1.84142,4.156807 0.0229,0.911443 -0.2486,1.804491 -0.77802,2.550231 -0.58926,0.764153 -1.37637,1.357972 -2.27409,1.717041 0.98975,0.239373 1.85977,0.833203 2.43976,1.670998 0.51558,0.870037 0.77338,1.873558 0.73659,2.886284 v 1.408615 c 0.009,0.561604 0.0782,1.123219 0.22094,1.671009 0.0967,0.501759 0.3591,0.957497 0.74115,1.293537 v 0.276192 h -3.95422 c -0.39133,-0.368259 -0.63992,-0.870026 -0.68593,-1.404015 -0.0967,-0.616836 -0.15193,-1.2429 -0.15193,-1.868938 v -1.353382 c 0.046,-0.814789 -0.23476,-1.615769 -0.78253,-2.223408 -0.58927,-0.556991 -1.38559,-0.847004 -2.1958,-0.79636 z m 0,-2.950737 h 3.3098 c 0.85624,0.06444 1.71247,-0.174927 2.40755,-0.681286 0.55693,-0.520181 0.84697,-1.265924 0.79631,-2.025459 0.0369,-0.777962 -0.25311,-1.532904 -0.79631,-2.085308 -0.64448,-0.557009 -1.48694,-0.837801 -2.33389,-0.77797 h -3.37424 l -0.009,5.570023 z"
                 style="fill:#303333;fill-opacity:1;fill-rule:nonzero;stroke:none"
                 id="path112" />
            </g>
            <g
               transform="matrix(4,0,0,4,3869.0313,807.16357)"
               id="g118">
              <path
                 d="M 0,0 H 3.834532 V 19.11759 H 0 Z"
                 style="fill:#303333;fill-opacity:1;fill-rule:nonzero;stroke:none"
                 id="path116" />
            </g>
            <g
               transform="matrix(4,0,0,4,3159.6094,712.35938)"
               id="g122">
              <path
                 d="m 198.56926,26.651016 h -5.40894 v 16.157662 h -3.83456 V 26.651016 h -5.38126 v -2.950722 h 14.62476 z"
                 style="fill:#303333;fill-opacity:1;fill-rule:nonzero;stroke:none"
                 id="path120" />
            </g>
            <g
               transform="matrix(4,0,0,4,3208.6133,712.37598)"
               id="g126">
              <path
                 d="m 195.71748,32.50774 h 0.0783 l 4.17518,-8.806149 h 4.20276 l -6.56428,12.39214 v 6.725456 h -3.82073 v -6.918796 l -6.44465,-12.1988 h 4.20283 z"
                 style="fill:#303333;fill-opacity:1;fill-rule:nonzero;stroke:none"
                 id="path124" />
            </g>
          </g>
        </g>
      </g>
    </g>
  </g>
</svg>
