<svg id="Layer_1" data-name="Layer 1" xmlns="http://www.w3.org/2000/svg" viewBox="0 0 554.79 162.8"><defs><style>.cls-1,.cls-2,.cls-4,.cls-5,.cls-6,.cls-8{isolation:isolate;}.cls-2{font-size:95px;}.cls-2,.cls-4,.cls-5,.cls-6,.cls-8{fill:#323232;}.cls-2,.cls-8{font-family:Arial-BoldMT, Arial;font-weight:700;}.cls-3{letter-spacing:-0.07em;}.cls-4,.cls-5,.cls-6{font-size:32.07px;font-family:Roboto-Regular, Roboto;}.cls-4{letter-spacing:0.03em;}.cls-5,.cls-7{letter-spacing:0.03em;}.cls-6{letter-spacing:0.02em;}.cls-8{font-size:130.41px;letter-spacing:0.08em;}.cls-9{fill:#f36e3c;}</style></defs><g id="vteamlabs"><g id="TeamLabs"><text class="cls-1" x="-133.21" y="-107.53"/><text class="cls-2" transform="translate(91.94 111.88)"><tspan class="cls-3">T</tspan><tspan x="50.98" y="0">eamLabs</tspan></text></g><g id="Where_Innovation_Matters" data-name="Where Innovation Matters"><text class="cls-4" transform="translate(108.71 154.11) scale(1.06 1)">Whe</text><text class="cls-5" transform="translate(180.71 154.11) scale(1.06 1)">r</text><text class="cls-5" transform="translate(193.6 154.11) scale(1.06 1)">e Inn</text><text class="cls-6" transform="translate(275.28 154.11) scale(1.06 1)">o<tspan class="cls-7" x="18.95" y="0">v</tspan></text><text class="cls-5" transform="translate(314.04 154.11) scale(1.06 1)">ation Matters</text></g><g id="V"><text class="cls-8" transform="translate(7.09 111.88)">V</text></g><g id="Ellipse_3" data-name="Ellipse 3"><circle class="cls-9" cx="50.59" cy="28.57" r="11.1"/></g><g id="Layer_2_Image" data-name="Layer 2 Image"><path class="cls-9" d="M138.2,169.7c3,15.3,11.3,19.2,24.8,11.9,20.5-11.1,41-22.1,61.5-33.2a74.69,74.69,0,0,1,12.6-5.4c-4.3,2.9-8.6,5.6-12.7,8.7-16.5,12.2-32.9,24.5-49.4,36.6-5.7,4.2-11.5,8.2-17.4,12.1a18.47,18.47,0,0,1-4.5,2.1c-12.8,4.7-21.3-1.4-19.7-14.8C134.1,181.7,136.6,175.7,138.2,169.7Z" transform="translate(-133.21 -107.53)"/></g></g></svg>